<?xml version="1.0" encoding="utf-8"?>
<!-- Generator: Adobe Illustrator 24.1.2, SVG Export Plug-In . SVG Version: 6.00 Build 0)  -->
<svg version="1.0" id="Capa_1" xmlns="http://www.w3.org/2000/svg" xmlns:xlink="http://www.w3.org/1999/xlink" x="0px" y="0px"
	 width="629px" height="155px" viewBox="0 0 629 155" enable-background="new 0 0 629 155" xml:space="preserve">
<g>
	<path fill="#FFFFFF" d="M184.5,36.1h17.2l30.1,80.2h-16.7l-6.6-19.2h-30.9l-6.6,19.2h-16.7L184.5,36.1z M203.6,83.3l-7.2-20
		l-2.9-9.7h-0.9l-2.9,9.7l-7.2,20H203.6z"/>
	<path fill="#FFFFFF" d="M289.9,102.3c-2.4,4.6-5.7,8.4-10,11.4c-4.3,2.9-9.7,4.4-16.1,4.4c-4.3,0-8.2-0.7-11.7-2.2
		c-3.5-1.5-6.6-3.5-9.2-6.1c-2.6-2.6-4.6-5.7-6-9.2c-1.5-3.5-2.2-7.4-2.2-11.7s0.7-8.2,2.2-11.8s3.5-6.7,6-9.2s5.6-4.6,9.2-6
		c3.5-1.5,7.4-2.2,11.7-2.2c6.3,0,11.7,1.5,16,4.4c4.3,2.9,7.5,6.7,9.5,11.3l-13.4,5.6c-1.3-2.5-2.9-4.5-4.9-5.8c-2-1.3-4.5-2-7.4-2
		c-1.9,0-3.8,0.4-5.5,1.1c-1.7,0.7-3.2,1.8-4.5,3.1c-1.3,1.3-2.3,3-3.1,4.9c-0.7,1.9-1.1,4.1-1.1,6.5c0,2.4,0.4,4.6,1.1,6.5
		c0.7,1.9,1.8,3.6,3.1,4.9c1.3,1.3,2.8,2.4,4.5,3.1c1.7,0.7,3.5,1.1,5.5,1.1c3.1,0,5.7-0.7,7.8-2.1c2.1-1.4,3.8-3.4,5.1-6
		L289.9,102.3z"/>
	<path fill="#FFFFFF" d="M304.3,74h-9.6V61.4h9.6V44.6H319v16.8h13.4V74H319v21.9c0,1.3,0.1,2.5,0.4,3.6c0.3,1.1,0.8,2.1,1.5,2.8
		c1,1.2,2.5,1.8,4.5,1.8c1.3,0,2.3-0.1,3-0.4c0.7-0.3,1.5-0.6,2.1-1.1l4.1,12.9c-1.7,0.8-3.6,1.4-5.5,1.8c-2,0.4-4.2,0.6-6.6,0.6
		c-2.8,0-5.2-0.4-7.4-1.3c-2.2-0.9-4.1-2.1-5.5-3.6c-3.5-3.4-5.3-8.3-5.3-14.6V74z"/>
	<path fill="#FFFFFF" d="M351.9,54c-1.3,0-2.5-0.2-3.6-0.7c-1.2-0.5-2.2-1.2-3-2c-0.9-0.9-1.5-1.8-2-3c-0.5-1.1-0.7-2.4-0.7-3.7
		c0-1.3,0.2-2.6,0.7-3.7c0.5-1.1,1.2-2.1,2-3c0.9-0.9,1.9-1.5,3-2c1.2-0.5,2.4-0.7,3.6-0.7c2.6,0,4.9,0.9,6.7,2.7
		c1.9,1.8,2.8,4.1,2.8,6.7c0,2.6-0.9,4.8-2.8,6.7C356.8,53.1,354.5,54,351.9,54z M344.6,116.3V61.4h14.7v54.9H344.6z"/>
	<path fill="#FFFFFF" d="M398.2,59.6c4.3,0,8.2,0.7,11.7,2.2c3.5,1.5,6.6,3.5,9.2,6c2.6,2.6,4.6,5.7,6,9.2s2.2,7.5,2.2,11.8
		s-0.7,8.2-2.2,11.8s-3.5,6.7-6,9.2c-2.6,2.6-5.6,4.6-9.2,6c-3.5,1.5-7.4,2.2-11.7,2.2s-8.2-0.7-11.7-2.2c-3.5-1.5-6.6-3.5-9.2-6
		s-4.6-5.7-6-9.2s-2.2-7.5-2.2-11.8s0.7-8.2,2.2-11.8s3.5-6.7,6-9.2s5.6-4.6,9.2-6C390,60.4,393.9,59.6,398.2,59.6z M398.2,104.5
		c1.9,0,3.7-0.4,5.4-1.1c1.8-0.7,3.3-1.7,4.6-3.1s2.4-3,3.2-4.9c0.8-1.9,1.2-4.1,1.2-6.6s-0.4-4.7-1.2-6.6c-0.8-1.9-1.8-3.6-3.2-4.9
		c-1.3-1.3-2.9-2.4-4.6-3.1c-1.8-0.7-3.6-1.1-5.4-1.1c-1.9,0-3.8,0.4-5.5,1.1c-1.7,0.7-3.2,1.7-4.6,3.1c-1.3,1.3-2.4,3-3.2,4.9
		c-0.8,1.9-1.2,4.1-1.2,6.6s0.4,4.7,1.2,6.6c0.8,1.9,1.8,3.6,3.2,4.9s2.9,2.4,4.6,3.1C394.4,104.2,396.2,104.5,398.2,104.5z"/>
	<path fill="#FFFFFF" d="M449.3,68.6h0.9c1.7-2.8,4-4.9,6.9-6.6c2.9-1.6,6.2-2.4,10-2.4c3.4,0,6.5,0.6,9.1,1.7
		c2.6,1.1,4.8,2.7,6.4,4.8c1.7,2.1,2.9,4.5,3.8,7.4c0.9,2.9,1.3,6.1,1.3,9.6v33.3h-14.7V84.8c0-4-0.9-6.9-2.6-8.8
		c-1.8-1.9-4.3-2.9-7.7-2.9c-2,0-3.8,0.4-5.3,1.3c-1.5,0.9-2.8,2-3.9,3.5c-1.1,1.5-1.9,3.2-2.5,5.2c-0.6,2-0.8,4.1-0.8,6.3v26.9
		h-14.7V61.4h13.8V68.6z"/>
</g>
</svg>
