<?xml version="1.0" encoding="utf-8"?>
<!-- Generator: Adobe Illustrator 24.1.2, SVG Export Plug-In . SVG Version: 6.00 Build 0)  -->
<svg version="1.1" id="Capa_1" xmlns="http://www.w3.org/2000/svg" xmlns:xlink="http://www.w3.org/1999/xlink" x="0px" y="0px"
	 width="629px" height="155px" viewBox="0 0 629 155" enable-background="new 0 0 629 155" xml:space="preserve">
<g>
	<path fill="#FFFFFF" d="M97.5,33.8h17.2l30.1,80.2h-16.7l-6.6-19.2H90.6L84,114H67.3L97.5,33.8z M116.6,81l-7.2-20l-2.9-9.7h-0.9
		l-2.9,9.7l-7.2,20H116.6z"/>
	<path fill="#FFFFFF" d="M152.5,114V33.8h14.7V114H152.5z"/>
	<path fill="#FFFFFF" d="M179.7,114V33.8h14.7V114H179.7z"/>
	<path fill="#FFFFFF" d="M256.8,140c-3.9,0-7.3-0.5-10.4-1.5c-3-1-5.7-2.3-7.9-3.9c-2.2-1.6-4.1-3.4-5.6-5.3
		c-1.5-1.9-2.6-3.9-3.2-5.8l14-5.6c1,2.9,2.8,5.2,5.2,6.8c2.4,1.6,5,2.4,8,2.4c4.6,0,8.3-1.5,11-4.5c2.7-3,4-7.1,4-12.4v-3.8H271
		c-1.7,2.4-4,4.3-6.8,5.7c-2.8,1.4-6.1,2.1-9.9,2.1c-3.3,0-6.5-0.7-9.6-2c-3.1-1.3-5.8-3.2-8.2-5.7c-2.4-2.5-4.3-5.5-5.8-8.9
		c-1.5-3.5-2.2-7.4-2.2-11.6c0-4.3,0.7-8.2,2.2-11.7c1.5-3.5,3.4-6.5,5.8-9c2.4-2.5,5.1-4.4,8.2-5.7c3.1-1.3,6.3-2,9.6-2
		c3.8,0,7.1,0.7,9.9,2.1c2.8,1.4,5.1,3.3,6.8,5.7h0.9v-5.9h14v51c0,4.6-0.7,8.8-2.1,12.5c-1.4,3.7-3.4,6.8-5.9,9.4
		c-2.5,2.6-5.6,4.6-9.1,5.9C265.1,139.3,261.2,140,256.8,140z M257.4,100.8c1.8,0,3.6-0.3,5.3-1c1.8-0.7,3.3-1.6,4.6-2.9
		c1.3-1.3,2.4-2.9,3.2-4.7c0.8-1.9,1.2-4,1.2-6.4c0-2.4-0.4-4.6-1.2-6.5c-0.8-1.9-1.9-3.5-3.2-4.8c-1.3-1.3-2.9-2.3-4.6-2.9
		c-1.8-0.7-3.5-1-5.3-1s-3.5,0.3-5.3,1c-1.7,0.7-3.2,1.6-4.6,3c-1.3,1.3-2.4,2.9-3.2,4.8c-0.8,1.9-1.2,4-1.2,6.4
		c0,2.4,0.4,4.6,1.2,6.4c0.8,1.9,1.9,3.4,3.2,4.7c1.3,1.3,2.9,2.3,4.6,2.9C253.9,100.5,255.6,100.8,257.4,100.8z"/>
	<path fill="#FFFFFF" d="M331.7,108.2h-0.9c-1.7,2.1-3.8,3.9-6.2,5.4c-2.4,1.5-5.5,2.2-9.4,2.2c-2.8,0-5.5-0.5-8-1.4
		c-2.5-0.9-4.7-2.2-6.6-3.9c-1.9-1.6-3.3-3.6-4.4-5.9c-1-2.3-1.6-4.9-1.6-7.6c0-2.8,0.6-5.4,1.7-7.7c1.1-2.3,2.7-4.2,4.7-5.9
		c2-1.6,4.4-2.9,7.1-3.8c2.7-0.9,5.7-1.3,8.9-1.3c3.6,0,6.5,0.3,8.8,0.8c2.3,0.6,4.2,1.1,5.7,1.7v-1.7c0-2.9-1.2-5.3-3.5-7.2
		c-2.3-1.9-5.2-2.9-8.6-2.9c-5.1,0-9.4,2.1-12.9,6.4L296,68.3c5.8-7.3,13.8-11,23.9-11c8.5,0,15,2,19.5,6c4.5,4,6.7,9.9,6.7,17.8
		V114h-14.4V108.2z M331.7,91.7c-1.7-0.8-3.5-1.5-5.3-2c-1.8-0.5-3.8-0.7-6-0.7c-3.5,0-6.2,0.8-8.1,2.3c-1.9,1.5-2.9,3.4-2.9,5.7
		c0,2.2,0.9,4,2.7,5.4c1.8,1.3,3.9,2,6.3,2c1.9,0,3.7-0.4,5.4-1.1c1.6-0.7,3-1.6,4.2-2.8c1.2-1.2,2.1-2.5,2.7-4
		C331.3,94.9,331.7,93.4,331.7,91.7z"/>
	<path fill="#FFFFFF" d="M357.8,59.1h13.8v7.2h0.9c1.7-2.7,4-4.9,7-6.5c2.9-1.6,6.2-2.5,9.8-2.5c4.2,0,7.7,1,10.5,2.9
		c2.8,1.9,4.9,4.3,6,7.2c1.7-2.8,4.1-5.1,7.3-7.1c3.1-2,6.9-3,11.4-3c3.4,0,6.3,0.5,8.7,1.6c2.5,1.1,4.5,2.6,6.1,4.5
		c1.6,1.9,2.8,4.3,3.6,7c0.8,2.7,1.2,5.7,1.2,8.9V114h-14.7V82.1c0-7.5-3.1-11.2-9.2-11.2c-1.9,0-3.7,0.4-5.2,1.3
		c-1.5,0.9-2.7,2-3.8,3.5c-1,1.5-1.8,3.2-2.4,5.2s-0.8,4.2-0.8,6.5V114h-14.7V82.1c0-7.5-3.2-11.2-9.6-11.2c-1.9,0-3.5,0.4-4.9,1.3
		c-1.4,0.9-2.6,2-3.6,3.5c-1,1.5-1.7,3.2-2.2,5.2c-0.5,2-0.8,4.2-0.8,6.5V114h-14.7V59.1z"/>
	<path fill="#FFFFFF" d="M508.3,100.8c-2.5,4.5-6,8.1-10.2,10.9c-4.3,2.8-9.5,4.1-15.7,4.1c-4.2,0-8-0.7-11.6-2.2
		c-3.5-1.5-6.6-3.5-9.2-6.1c-2.6-2.6-4.6-5.7-6.1-9.2c-1.5-3.5-2.2-7.4-2.2-11.7c0-4,0.7-7.7,2.1-11.3c1.4-3.5,3.4-6.6,5.9-9.3
		c2.5-2.6,5.5-4.8,9-6.3c3.5-1.6,7.3-2.4,11.5-2.4c4.4,0,8.3,0.7,11.8,2.2c3.4,1.5,6.3,3.5,8.6,6c2.3,2.6,4.1,5.6,5.3,9.1
		c1.2,3.5,1.8,7.3,1.8,11.4c0,0.5,0,1,0,1.3c-0.1,0.4-0.1,0.9-0.1,1.2c-0.1,0.4-0.1,0.8-0.1,1.2h-41.3c0.3,2.2,0.9,4.2,1.8,5.8
		c0.9,1.6,2.1,3,3.5,4c1.4,1.1,2.9,1.9,4.5,2.4c1.6,0.5,3.3,0.7,5,0.7c3.4,0,6.1-0.8,8.3-2.3c2.2-1.5,3.9-3.5,5.2-5.8L508.3,100.8z
		 M495,79.5c-0.1-1-0.4-2.1-1-3.2c-0.6-1.2-1.4-2.3-2.5-3.4c-1.1-1-2.4-1.9-4-2.6c-1.6-0.7-3.5-1-5.8-1c-3.1,0-5.9,0.9-8.3,2.7
		c-2.4,1.8-4.1,4.3-5,7.5H495z"/>
	<path fill="#FFFFFF" d="M540.9,115.8c-3.6,0-6.8-0.4-9.6-1.3c-2.8-0.9-5.2-2.1-7.3-3.5c-2.1-1.5-3.8-3.1-5.2-5
		c-1.4-1.9-2.5-3.8-3.2-5.8l13.1-5.6c1.3,2.8,3,4.9,5.1,6.3c2.1,1.4,4.5,2.1,7.1,2.1c2.7,0,4.8-0.5,6.4-1.5c1.6-1,2.4-2.1,2.4-3.5
		c0-1.5-0.7-2.7-2-3.6c-1.3-0.9-3.6-1.8-6.8-2.5l-7.7-1.7c-1.7-0.4-3.5-1-5.3-1.8c-1.8-0.8-3.5-1.9-5-3.1c-1.5-1.3-2.7-2.8-3.7-4.6
		c-1-1.8-1.5-3.9-1.5-6.3c0-2.7,0.6-5.1,1.7-7.2c1.2-2.1,2.7-3.9,4.8-5.3c2-1.5,4.4-2.6,7.1-3.4c2.7-0.8,5.7-1.2,8.8-1.2
		c5.2,0,9.9,1,14,3.1c4.1,2.1,7.1,5.3,9.1,9.8l-12.7,5.2c-1-2.2-2.6-3.7-4.6-4.7c-2-1-4-1.5-6-1.5c-2.1,0-3.9,0.4-5.5,1.3
		c-1.6,0.9-2.4,2-2.4,3.3c0,1.3,0.7,2.3,2,3c1.3,0.7,3.1,1.4,5.3,2l8.4,2c5.6,1.3,9.8,3.5,12.5,6.4c2.7,3,4.1,6.4,4.1,10.5
		c0,2.4-0.6,4.7-1.7,6.8c-1.1,2.2-2.7,4.1-4.8,5.8c-2.1,1.7-4.5,3-7.4,4C547.6,115.3,544.4,115.8,540.9,115.8z"/>
</g>
</svg>
