<?xml version="1.0" encoding="utf-8"?>
<!-- Generator: Adobe Illustrator 24.1.2, SVG Export Plug-In . SVG Version: 6.00 Build 0)  -->
<svg version="1.0" id="Capa_1" xmlns="http://www.w3.org/2000/svg" xmlns:xlink="http://www.w3.org/1999/xlink" x="0px" y="0px"
	 width="629px" height="155px" viewBox="0 0 629 155" enable-background="new 0 0 629 155" xml:space="preserve">
<g>
	<path fill="#FFFFFF" d="M20.2,35.4h31.4c3.4,0,6.6,0.5,9.6,1.6c3,1.1,5.6,2.6,7.8,4.5c2.2,1.9,3.9,4.1,5.2,6.7
		c1.3,2.5,1.9,5.3,1.9,8.2c0,4.3-1,7.8-3.1,10.7c-2.1,2.9-4.6,5.1-7.7,6.6v0.9c4.1,1.5,7.4,3.8,9.9,7c2.5,3.2,3.8,7.1,3.8,11.8
		c0,3.4-0.7,6.5-2.1,9.2c-1.4,2.7-3.3,5.1-5.7,7c-2.4,1.9-5.2,3.4-8.3,4.5c-3.2,1-6.6,1.6-10.2,1.6H20.2V35.4z M50.5,68.2
		c3.5,0,6.2-1,8.1-2.9c1.9-1.9,2.9-4.2,2.9-6.8c0-2.6-0.9-4.9-2.8-6.7c-1.9-1.9-4.4-2.8-7.7-2.8H35.4v19.2H50.5z M52.2,101.8
		c3.8,0,6.7-1,8.7-2.9c2-1.9,3-4.3,3-7.3c0-3-1-5.5-3.1-7.4c-2.1-2-5.1-3-9.1-3H35.4v20.6H52.2z"/>
	<path fill="#FFFFFF" d="M140.9,102.4c-2.5,4.5-6,8.1-10.2,10.9c-4.3,2.8-9.5,4.1-15.7,4.1c-4.2,0-8-0.7-11.6-2.2
		c-3.5-1.5-6.6-3.5-9.2-6.1c-2.6-2.6-4.6-5.7-6.1-9.2s-2.2-7.4-2.2-11.7c0-4,0.7-7.7,2.1-11.3c1.4-3.5,3.4-6.6,5.9-9.3
		c2.5-2.6,5.5-4.8,9-6.3c3.5-1.6,7.3-2.4,11.5-2.4c4.4,0,8.3,0.7,11.8,2.2c3.4,1.5,6.3,3.5,8.6,6c2.3,2.6,4.1,5.6,5.3,9.1
		c1.2,3.5,1.8,7.3,1.8,11.4c0,0.5,0,1,0,1.3c-0.1,0.4-0.1,0.9-0.1,1.2c-0.1,0.4-0.1,0.8-0.1,1.2h-41.3c0.3,2.2,0.9,4.2,1.8,5.8
		c0.9,1.6,2.1,3,3.5,4c1.4,1.1,2.9,1.9,4.5,2.4c1.6,0.5,3.3,0.7,5,0.7c3.4,0,6.1-0.8,8.3-2.3c2.2-1.5,3.9-3.5,5.2-5.8L140.9,102.4z
		 M127.5,81.1c-0.1-1-0.4-2.1-1-3.2c-0.6-1.2-1.4-2.3-2.5-3.4c-1.1-1-2.4-1.9-4-2.6c-1.6-0.7-3.5-1-5.8-1c-3.1,0-5.9,0.9-8.3,2.7
		c-2.4,1.8-4.1,4.3-5,7.5H127.5z"/>
	<path fill="#FFFFFF" d="M185.5,109.8h-0.9c-1.7,2.1-3.8,3.9-6.2,5.4c-2.4,1.5-5.5,2.2-9.4,2.2c-2.8,0-5.5-0.5-8-1.4
		c-2.5-0.9-4.7-2.2-6.6-3.9c-1.9-1.6-3.3-3.6-4.4-5.9c-1-2.3-1.6-4.9-1.6-7.6c0-2.8,0.6-5.4,1.7-7.7c1.1-2.3,2.7-4.2,4.7-5.9
		c2-1.6,4.4-2.9,7.1-3.8c2.7-0.9,5.7-1.3,8.9-1.3c3.6,0,6.5,0.3,8.8,0.8c2.3,0.6,4.2,1.1,5.7,1.7v-1.7c0-2.9-1.2-5.3-3.5-7.2
		c-2.3-1.9-5.2-2.9-8.6-2.9c-5.1,0-9.4,2.1-12.9,6.4l-10.6-7.3c5.8-7.3,13.8-11,23.9-11c8.5,0,15,2,19.5,6c4.5,4,6.7,9.9,6.7,17.8
		v32.9h-14.4V109.8z M185.5,93.4c-1.7-0.8-3.5-1.5-5.3-2c-1.8-0.5-3.8-0.7-6-0.7c-3.5,0-6.2,0.8-8.1,2.3c-1.9,1.5-2.9,3.4-2.9,5.7
		s0.9,4,2.7,5.4c1.8,1.3,3.9,2,6.3,2c1.9,0,3.7-0.4,5.4-1.1c1.6-0.7,3-1.6,4.2-2.8c1.2-1.2,2.1-2.5,2.7-4
		C185.2,96.6,185.5,95,185.5,93.4z"/>
	<path fill="#FFFFFF" d="M216.6,73.3h-9.6V60.8h9.6V44h14.7v16.8h13.4v12.5h-13.4v21.9c0,1.3,0.1,2.5,0.4,3.6
		c0.3,1.1,0.8,2.1,1.5,2.8c1,1.2,2.5,1.8,4.5,1.8c1.3,0,2.3-0.1,3-0.4c0.7-0.3,1.5-0.6,2.1-1.1l4.1,12.9c-1.7,0.8-3.6,1.4-5.5,1.8
		c-2,0.4-4.2,0.6-6.6,0.6c-2.8,0-5.2-0.4-7.4-1.3c-2.2-0.9-4.1-2.1-5.5-3.6c-3.5-3.4-5.3-8.3-5.3-14.6V73.3z"/>
	<path fill="#FFFFFF" d="M298.3,37.2l-5.7,9c1.7,0.6,3.1,1.7,4.3,3.3c1.1,1.6,1.7,3.5,1.7,5.7c0,2.8-0.9,5.1-2.8,7.1
		c-1.9,2-4.1,2.9-6.8,2.9c-2.7,0-5-1-6.9-2.9c-1.9-2-2.9-4.3-2.9-7.1c0-1.5,0.2-2.8,0.7-3.9c0.5-1.1,1.2-2.4,2.1-3.7l9.7-14.8
		L298.3,37.2z"/>
	<path fill="#FFFFFF" d="M355.4,102.4c-2.5,4.5-6,8.1-10.2,10.9c-4.3,2.8-9.5,4.1-15.7,4.1c-4.2,0-8-0.7-11.6-2.2
		c-3.5-1.5-6.6-3.5-9.2-6.1c-2.6-2.6-4.6-5.7-6.1-9.2s-2.2-7.4-2.2-11.7c0-4,0.7-7.7,2.1-11.3c1.4-3.5,3.4-6.6,5.9-9.3
		c2.5-2.6,5.5-4.8,9-6.3c3.5-1.6,7.3-2.4,11.5-2.4c4.4,0,8.3,0.7,11.8,2.2c3.4,1.5,6.3,3.5,8.6,6c2.3,2.6,4.1,5.6,5.3,9.1
		c1.2,3.5,1.8,7.3,1.8,11.4c0,0.5,0,1,0,1.3c-0.1,0.4-0.1,0.9-0.1,1.2c-0.1,0.4-0.1,0.8-0.1,1.2h-41.3c0.3,2.2,0.9,4.2,1.8,5.8
		c0.9,1.6,2.1,3,3.5,4c1.4,1.1,2.9,1.9,4.5,2.4c1.6,0.5,3.3,0.7,5,0.7c3.4,0,6.1-0.8,8.3-2.3c2.2-1.5,3.9-3.5,5.2-5.8L355.4,102.4z
		 M342.1,81.1c-0.1-1-0.4-2.1-1-3.2c-0.6-1.2-1.4-2.3-2.5-3.4c-1.1-1-2.4-1.9-4-2.6c-1.6-0.7-3.5-1-5.8-1c-3.1,0-5.9,0.9-8.3,2.7
		c-2.4,1.8-4.1,4.3-5,7.5H342.1z"/>
	<path fill="#FFFFFF" d="M365.7,60.8h13.8v7.2h0.9c1.7-2.7,4-4.9,7-6.5c2.9-1.6,6.2-2.5,9.8-2.5c4.2,0,7.7,1,10.5,2.9
		c2.8,1.9,4.9,4.3,6,7.2c1.7-2.8,4.1-5.1,7.3-7.1c3.1-2,6.9-3,11.4-3c3.4,0,6.3,0.5,8.7,1.6c2.5,1.1,4.5,2.6,6.1,4.5
		c1.6,1.9,2.8,4.3,3.6,7c0.8,2.7,1.2,5.7,1.2,8.9v34.6h-14.7V83.7c0-7.5-3.1-11.2-9.2-11.2c-1.9,0-3.7,0.4-5.2,1.3
		c-1.5,0.9-2.7,2-3.8,3.5c-1,1.5-1.8,3.2-2.4,5.2c-0.6,2-0.8,4.2-0.8,6.5v26.7h-14.7V83.7c0-7.5-3.2-11.2-9.6-11.2
		c-1.9,0-3.5,0.4-4.9,1.3c-1.4,0.9-2.6,2-3.6,3.5c-1,1.5-1.7,3.2-2.2,5.2c-0.5,2-0.8,4.2-0.8,6.5v26.7h-14.7V60.8z"/>
	<path fill="#FFFFFF" d="M526.9,108.5H526c-1.7,2.8-4,4.9-6.9,6.6c-2.9,1.6-6.2,2.4-10,2.4c-6.9,0-12.1-2.1-15.5-6.4
		c-3.4-4.3-5.1-9.9-5.1-17V60.8h14.7v31.5c0,4,0.9,6.9,2.6,8.8c1.8,1.9,4.3,2.9,7.7,2.9c2,0,3.8-0.4,5.3-1.3c1.5-0.9,2.8-2,3.9-3.5
		c1.1-1.5,1.9-3.2,2.5-5.2c0.6-2,0.8-4.1,0.8-6.3V60.8h14.7v54.9h-13.8V108.5z"/>
	<path fill="#FFFFFF" d="M552.8,60.8h13.8v6.6h0.9c1.3-2.3,3.4-4.3,6.3-5.9c2.8-1.6,6.3-2.5,10.5-2.5c3.5,0,6.8,0.7,10,2.2
		c3.2,1.5,6,3.5,8.4,6c2.4,2.6,4.3,5.7,5.8,9.2c1.4,3.6,2.1,7.5,2.1,11.8s-0.7,8.2-2.1,11.8c-1.4,3.6-3.3,6.7-5.8,9.2
		c-2.4,2.6-5.2,4.6-8.4,6c-3.2,1.5-6.5,2.2-10,2.2c-4.2,0-7.7-0.8-10.5-2.5c-2.8-1.6-4.9-3.6-6.3-5.9h-0.9l0.9,7.8v23h-14.7V60.8z
		 M581.2,103.9c1.9,0,3.8-0.4,5.5-1.1c1.8-0.7,3.3-1.8,4.6-3.1c1.3-1.3,2.4-3,3.2-4.9c0.8-1.9,1.2-4.1,1.2-6.5
		c0-2.4-0.4-4.6-1.2-6.5c-0.8-1.9-1.9-3.6-3.2-4.9c-1.3-1.3-2.9-2.4-4.6-3.1c-1.8-0.7-3.6-1.1-5.5-1.1c-1.9,0-3.8,0.4-5.5,1.1
		c-1.8,0.7-3.3,1.7-4.6,3.1c-1.3,1.3-2.4,3-3.2,4.9c-0.8,1.9-1.2,4.1-1.2,6.6c0,2.5,0.4,4.7,1.2,6.6c0.8,1.9,1.9,3.6,3.2,4.9
		c1.3,1.3,2.9,2.4,4.6,3.1C577.4,103.5,579.3,103.9,581.2,103.9z"/>
</g>
</svg>
