<?xml version="1.0" encoding="utf-8"?>
<!-- Generator: Adobe Illustrator 24.1.2, SVG Export Plug-In . SVG Version: 6.00 Build 0)  -->
<svg version="1.0" id="Capa_1" xmlns="http://www.w3.org/2000/svg" xmlns:xlink="http://www.w3.org/1999/xlink" x="0px" y="0px"
	 width="629px" height="155px" viewBox="0 0 629 155" enable-background="new 0 0 629 155" xml:space="preserve">
<g>
	<path fill="#FFFFFF" d="M110.1,36.8h50.8v14.3h-35.7v19.5h32.1V85h-32.1v32h-15.1V36.8z"/>
	<path fill="#FFFFFF" d="M177.8,54.7c-1.3,0-2.5-0.2-3.6-0.7c-1.2-0.5-2.2-1.2-3-2c-0.9-0.9-1.5-1.8-2-3c-0.5-1.1-0.7-2.4-0.7-3.7
		c0-1.3,0.2-2.6,0.7-3.7c0.5-1.1,1.2-2.1,2-3c0.9-0.9,1.9-1.5,3-2c1.2-0.5,2.4-0.7,3.6-0.7c2.6,0,4.9,0.9,6.7,2.7
		c1.9,1.8,2.8,4.1,2.8,6.7c0,2.6-0.9,4.8-2.8,6.7C182.7,53.8,180.4,54.7,177.8,54.7z M170.5,117V62.1h14.7V117H170.5z"/>
	<path fill="#FFFFFF" d="M223.4,143c-3.9,0-7.3-0.5-10.4-1.5c-3-1-5.7-2.3-7.9-3.9c-2.2-1.6-4.1-3.4-5.6-5.3
		c-1.5-1.9-2.6-3.9-3.2-5.8l14-5.6c1,2.9,2.8,5.2,5.2,6.8c2.4,1.6,5,2.4,8,2.4c4.6,0,8.3-1.5,11-4.5c2.7-3,4-7.1,4-12.4v-3.8h-0.9
		c-1.7,2.4-4,4.3-6.8,5.7c-2.8,1.4-6.1,2.1-9.9,2.1c-3.3,0-6.5-0.7-9.6-2c-3.1-1.3-5.8-3.2-8.2-5.7c-2.4-2.5-4.3-5.5-5.8-8.9
		c-1.5-3.5-2.2-7.4-2.2-11.6c0-4.3,0.7-8.2,2.2-11.7c1.5-3.5,3.4-6.5,5.8-9c2.4-2.5,5.1-4.4,8.2-5.7c3.1-1.3,6.3-2,9.6-2
		c3.8,0,7.1,0.7,9.9,2.1c2.8,1.4,5.1,3.3,6.8,5.7h0.9v-5.9h14v51c0,4.6-0.7,8.8-2.1,12.5c-1.4,3.7-3.4,6.8-5.9,9.4
		c-2.5,2.6-5.6,4.6-9.1,5.9C231.7,142.3,227.7,143,223.4,143z M224,103.8c1.8,0,3.6-0.3,5.3-1c1.8-0.7,3.3-1.6,4.6-2.9
		c1.3-1.3,2.4-2.9,3.2-4.7c0.8-1.9,1.2-4,1.2-6.4c0-2.4-0.4-4.6-1.2-6.5c-0.8-1.9-1.9-3.5-3.2-4.8c-1.3-1.3-2.9-2.3-4.6-2.9
		c-1.8-0.7-3.5-1-5.3-1s-3.5,0.3-5.3,1c-1.7,0.7-3.2,1.6-4.6,3c-1.3,1.3-2.4,2.9-3.2,4.8c-0.8,1.9-1.2,4-1.2,6.4
		c0,2.4,0.4,4.6,1.2,6.4c0.8,1.9,1.9,3.4,3.2,4.7c1.3,1.3,2.9,2.3,4.6,2.9C220.4,103.5,222.2,103.8,224,103.8z"/>
	<path fill="#FFFFFF" d="M265,36.8h14.7v22.5l-0.9,10h0.9c1.6-2.6,3.8-4.8,6.8-6.4c2.9-1.7,6.3-2.5,9.9-2.5c7.1,0,12.3,2.1,15.7,6.3
		c3.4,4.2,5.1,9.9,5.1,17.1V117h-14.7V85.5c0-3.8-0.9-6.7-2.7-8.7c-1.8-2-4.3-3-7.5-3c-2,0-3.8,0.4-5.4,1.3c-1.6,0.9-2.9,2-4,3.5
		c-1.1,1.5-1.9,3.2-2.5,5.2s-0.8,4.1-0.8,6.3V117H265V36.8z"/>
	<path fill="#FFFFFF" d="M332.5,74.7h-9.6V62.1h9.6V45.3h14.7v16.8h13.4v12.5h-13.4v21.9c0,1.3,0.1,2.5,0.4,3.6
		c0.3,1.1,0.8,2.1,1.5,2.8c1,1.2,2.5,1.8,4.5,1.8c1.3,0,2.3-0.1,3-0.4c0.7-0.3,1.5-0.6,2.1-1.1l4.1,12.9c-1.7,0.8-3.6,1.4-5.5,1.8
		c-2,0.4-4.2,0.6-6.6,0.6c-2.8,0-5.2-0.4-7.4-1.3c-2.2-0.9-4.1-2.1-5.5-3.6c-3.5-3.4-5.3-8.3-5.3-14.6V74.7z"/>
	<path fill="#FFFFFF" d="M380.1,54.7c-1.3,0-2.5-0.2-3.6-0.7c-1.2-0.5-2.2-1.2-3-2c-0.9-0.9-1.5-1.8-2-3c-0.5-1.1-0.7-2.4-0.7-3.7
		c0-1.3,0.2-2.6,0.7-3.7c0.5-1.1,1.2-2.1,2-3c0.9-0.9,1.9-1.5,3-2c1.2-0.5,2.4-0.7,3.6-0.7c2.6,0,4.9,0.9,6.7,2.7
		c1.9,1.8,2.8,4.1,2.8,6.7c0,2.6-0.9,4.8-2.8,6.7C384.9,53.8,382.7,54.7,380.1,54.7z M372.8,117V62.1h14.7V117H372.8z"/>
	<path fill="#FFFFFF" d="M414.7,69.3h0.9c1.7-2.8,4-4.9,6.9-6.6c2.9-1.6,6.2-2.4,10-2.4c3.4,0,6.5,0.6,9.1,1.7
		c2.6,1.1,4.8,2.7,6.4,4.8c1.7,2.1,2.9,4.5,3.8,7.4c0.9,2.9,1.3,6.1,1.3,9.6V117h-14.7V85.5c0-4-0.9-6.9-2.6-8.8
		c-1.8-1.9-4.3-2.9-7.7-2.9c-2,0-3.8,0.4-5.3,1.3c-1.5,0.9-2.8,2-3.9,3.5c-1.1,1.5-1.9,3.2-2.5,5.2c-0.6,2-0.8,4.1-0.8,6.3V117
		h-14.7V62.1h13.8V69.3z"/>
	<path fill="#FFFFFF" d="M490,143c-3.9,0-7.3-0.5-10.4-1.5c-3-1-5.7-2.3-7.9-3.9c-2.2-1.6-4.1-3.4-5.6-5.3c-1.5-1.9-2.6-3.9-3.2-5.8
		l14-5.6c1,2.9,2.8,5.2,5.2,6.8c2.4,1.6,5,2.4,8,2.4c4.6,0,8.3-1.5,11-4.5c2.7-3,4-7.1,4-12.4v-3.8h-0.9c-1.7,2.4-4,4.3-6.8,5.7
		c-2.8,1.4-6.1,2.1-9.9,2.1c-3.3,0-6.5-0.7-9.6-2c-3.1-1.3-5.8-3.2-8.2-5.7c-2.4-2.5-4.3-5.5-5.8-8.9c-1.5-3.5-2.2-7.4-2.2-11.6
		c0-4.3,0.7-8.2,2.2-11.7c1.5-3.5,3.4-6.5,5.8-9c2.4-2.5,5.1-4.4,8.2-5.7c3.1-1.3,6.3-2,9.6-2c3.8,0,7.1,0.7,9.9,2.1
		c2.8,1.4,5.1,3.3,6.8,5.7h0.9v-5.9h14v51c0,4.6-0.7,8.8-2.1,12.5c-1.4,3.7-3.4,6.8-5.9,9.4c-2.5,2.6-5.6,4.6-9.1,5.9
		C498.2,142.3,494.3,143,490,143z M490.5,103.8c1.8,0,3.6-0.3,5.3-1c1.8-0.7,3.3-1.6,4.6-2.9c1.3-1.3,2.4-2.9,3.2-4.7
		c0.8-1.9,1.2-4,1.2-6.4c0-2.4-0.4-4.6-1.2-6.5c-0.8-1.9-1.9-3.5-3.2-4.8c-1.3-1.3-2.9-2.3-4.6-2.9c-1.8-0.7-3.5-1-5.3-1
		c-1.8,0-3.5,0.3-5.3,1c-1.7,0.7-3.2,1.6-4.6,3c-1.3,1.3-2.4,2.9-3.2,4.8c-0.8,1.9-1.2,4-1.2,6.4c0,2.4,0.4,4.6,1.2,6.4
		c0.8,1.9,1.9,3.4,3.2,4.7c1.3,1.3,2.9,2.3,4.6,2.9C487,103.5,488.7,103.8,490.5,103.8z"/>
</g>
</svg>
