<?xml version="1.0" encoding="utf-8"?>
<!-- Generator: Adobe Illustrator 24.1.2, SVG Export Plug-In . SVG Version: 6.00 Build 0)  -->
<svg version="1.0" id="Capa_1" xmlns="http://www.w3.org/2000/svg" xmlns:xlink="http://www.w3.org/1999/xlink" x="0px" y="0px"
	 width="629px" height="155px" viewBox="0 0 629 155" enable-background="new 0 0 629 155" xml:space="preserve">
<g>
	<path fill="#FFFFFF" d="M202.1,36.1H217l24.5,42.4h0.9l24.5-42.4h15v80.2h-15V76.8l0.9-13.4h-0.9l-20.4,36h-9.1l-20.5-36h-0.9
		l0.9,13.4v39.5h-14.9V36.1z"/>
	<path fill="#FFFFFF" d="M328.4,110.5h-0.9c-1.7,2.1-3.8,3.9-6.2,5.4c-2.4,1.5-5.5,2.2-9.4,2.2c-2.8,0-5.5-0.5-8-1.4
		c-2.5-0.9-4.7-2.2-6.6-3.9c-1.9-1.6-3.3-3.6-4.4-5.9c-1-2.3-1.6-4.9-1.6-7.6c0-2.8,0.6-5.4,1.7-7.7c1.1-2.3,2.7-4.2,4.7-5.9
		c2-1.6,4.4-2.9,7.1-3.8c2.7-0.9,5.7-1.3,8.9-1.3c3.6,0,6.5,0.3,8.8,0.8c2.3,0.6,4.2,1.1,5.7,1.7v-1.7c0-2.9-1.2-5.3-3.5-7.2
		c-2.3-1.9-5.2-2.9-8.6-2.9c-5.1,0-9.4,2.1-12.9,6.4l-10.6-7.3c5.8-7.3,13.8-11,23.9-11c8.5,0,15,2,19.5,6c4.5,4,6.7,9.9,6.7,17.8
		v32.9h-14.4V110.5z M328.4,94c-1.7-0.8-3.5-1.5-5.3-2c-1.8-0.5-3.8-0.7-6-0.7c-3.5,0-6.2,0.8-8.1,2.3c-1.9,1.5-2.9,3.4-2.9,5.7
		c0,2.2,0.9,4,2.7,5.4c1.8,1.3,3.9,2,6.3,2c1.9,0,3.7-0.4,5.4-1.1c1.6-0.7,3-1.6,4.2-2.8c1.2-1.2,2.1-2.5,2.7-4
		C328.1,97.2,328.4,95.7,328.4,94z"/>
	<path fill="#FFFFFF" d="M352.9,104.2l28-30.2h-27.1V61.4H399v12.1l-28,30.2h28.4v12.5h-46.5V104.2z"/>
	<path fill="#FFFFFF" d="M460.1,103.1c-2.5,4.5-6,8.1-10.2,10.9c-4.3,2.8-9.5,4.1-15.7,4.1c-4.2,0-8-0.7-11.6-2.2
		c-3.5-1.5-6.6-3.5-9.2-6.1c-2.6-2.6-4.6-5.7-6.1-9.2c-1.5-3.5-2.2-7.4-2.2-11.7c0-4,0.7-7.7,2.1-11.3c1.4-3.5,3.4-6.6,5.9-9.3
		c2.5-2.6,5.5-4.8,9-6.3c3.5-1.6,7.3-2.4,11.5-2.4c4.4,0,8.3,0.7,11.8,2.2c3.4,1.5,6.3,3.5,8.6,6c2.3,2.6,4.1,5.6,5.3,9.1
		c1.2,3.5,1.8,7.3,1.8,11.4c0,0.5,0,1,0,1.3c-0.1,0.4-0.1,0.9-0.1,1.2c-0.1,0.4-0.1,0.8-0.1,1.2h-41.3c0.3,2.2,0.9,4.2,1.8,5.8
		c0.9,1.6,2.1,3,3.5,4c1.4,1.1,2.9,1.9,4.5,2.4c1.6,0.5,3.3,0.7,5,0.7c3.4,0,6.1-0.8,8.3-2.3c2.2-1.5,3.9-3.5,5.2-5.8L460.1,103.1z
		 M446.8,81.8c-0.1-1-0.4-2.1-1-3.2c-0.6-1.2-1.4-2.3-2.5-3.4c-1.1-1-2.4-1.9-4-2.6c-1.6-0.7-3.5-1-5.8-1c-3.1,0-5.9,0.9-8.3,2.7
		c-2.4,1.8-4.1,4.3-5,7.5H446.8z"/>
</g>
</svg>
