<?xml version="1.0" encoding="utf-8"?>
<!-- Generator: Adobe Illustrator 24.1.0, SVG Export Plug-In . SVG Version: 6.00 Build 0)  -->
<svg version="1.0" id="Capa_1" xmlns="http://www.w3.org/2000/svg" xmlns:xlink="http://www.w3.org/1999/xlink" x="0px" y="0px"
	 width="505px" height="155px" viewBox="0 0 505 155" enable-background="new 0 0 505 155" xml:space="preserve">
<g>
	<path fill="#FFFFFF" d="M44.8,113.9V33.7H73c3.8,0,7.4,0.6,10.7,1.8c3.3,1.2,6.2,3,8.7,5.2c2.5,2.2,4.4,4.9,5.8,8
		c1.4,3.1,2.1,6.5,2.1,10.2c0,3.8-0.7,7.3-2.1,10.4c-1.4,3.1-3.4,5.8-5.8,8c-2.5,2.2-5.4,4-8.7,5.2c-3.3,1.2-6.9,1.8-10.7,1.8H59.9
		v29.5H44.8z M73.2,70.1c4,0,6.9-1.1,9-3.4c2-2.2,3-4.8,3-7.7c0-1.4-0.2-2.8-0.7-4.1c-0.5-1.3-1.2-2.5-2.2-3.5c-1-1-2.3-1.8-3.8-2.4
		C77,48.3,75.2,48,73.2,48H59.9v22.1H73.2z"/>
	<path fill="#FFFFFF" d="M109.8,113.9V33.7h14.7v80.2H109.8z"/>
	<path fill="#FFFFFF" d="M170.3,108.1h-0.9c-1.7,2.1-3.8,3.9-6.2,5.4c-2.4,1.5-5.5,2.2-9.4,2.2c-2.8,0-5.5-0.5-8-1.4
		c-2.5-0.9-4.7-2.2-6.6-3.9c-1.9-1.6-3.3-3.6-4.4-5.9c-1-2.3-1.6-4.9-1.6-7.6c0-2.8,0.6-5.4,1.7-7.7c1.1-2.3,2.7-4.2,4.7-5.9
		c2-1.6,4.4-2.9,7.1-3.8c2.7-0.9,5.7-1.3,8.9-1.3c3.6,0,6.5,0.3,8.8,0.8c2.3,0.6,4.2,1.1,5.7,1.7v-1.7c0-2.9-1.2-5.3-3.5-7.2
		c-2.3-1.9-5.2-2.9-8.6-2.9c-5.1,0-9.4,2.1-12.9,6.4l-10.6-7.3c5.8-7.3,13.8-11,23.9-11c8.5,0,15,2,19.5,6c4.5,4,6.7,9.9,6.7,17.8
		v32.9h-14.4V108.1z M170.3,91.6c-1.7-0.8-3.5-1.5-5.3-2c-1.8-0.5-3.8-0.7-6-0.7c-3.5,0-6.2,0.8-8.1,2.3c-1.9,1.5-2.9,3.4-2.9,5.7
		s0.9,4,2.7,5.4c1.8,1.3,3.9,2,6.3,2c1.9,0,3.7-0.4,5.4-1.1c1.6-0.7,3-1.6,4.2-2.8c1.2-1.2,2.1-2.5,2.7-4
		C170,94.8,170.3,93.3,170.3,91.6z"/>
	<path fill="#FFFFFF" d="M257.6,32.8c2.1,0,4,0.2,5.8,0.6c1.8,0.4,3.4,0.9,4.8,1.5l-4.1,13.1c-0.7-0.4-1.6-0.7-2.4-0.9
		c-0.9-0.2-1.9-0.3-3.2-0.3c-2.2,0-3.9,0.7-5.2,2.1c-1.3,1.4-1.9,3.4-1.9,5.8V59h13.7v12.5h-13.7v42.3h-14.7V71.6H216v21.3
		c0,1.3,0.1,2.4,0.4,3.5c0.3,1.1,0.8,2,1.5,2.7c1,1.2,2.5,1.8,4.5,1.8c1,0,1.9-0.1,2.7-0.3c0.7-0.2,1.6-0.5,2.5-0.9l1,13.8
		c-1.5,0.5-2.9,0.9-4.2,1.1c-1.3,0.2-2.9,0.3-4.8,0.3c-2.8,0-5.2-0.4-7.4-1.3c-2.2-0.9-4.1-2-5.5-3.5c-3.5-3.4-5.3-8.1-5.3-14.3
		V71.6h-9.6V59h9.6V42.2H216V59h20.7v-5.4c0-3.4,0.5-6.3,1.5-8.9c1-2.6,2.4-4.7,4.3-6.5c1.9-1.8,4.1-3.1,6.6-4
		C251.7,33.3,254.5,32.8,257.6,32.8z"/>
	<path fill="#FFFFFF" d="M297.5,57.2c4.3,0,8.2,0.7,11.7,2.2c3.5,1.5,6.6,3.5,9.2,6c2.6,2.6,4.6,5.7,6,9.2c1.5,3.6,2.2,7.5,2.2,11.8
		s-0.7,8.2-2.2,11.8s-3.5,6.7-6,9.2c-2.6,2.6-5.6,4.6-9.2,6c-3.5,1.5-7.4,2.2-11.7,2.2s-8.2-0.7-11.7-2.2c-3.5-1.5-6.6-3.5-9.2-6
		s-4.6-5.7-6-9.2s-2.2-7.5-2.2-11.8s0.7-8.2,2.2-11.8c1.5-3.6,3.5-6.7,6-9.2s5.6-4.6,9.2-6C289.4,58,293.3,57.2,297.5,57.2z
		 M297.5,102.1c1.9,0,3.7-0.4,5.4-1.1c1.8-0.7,3.3-1.7,4.6-3.1s2.4-3,3.2-4.9c0.8-1.9,1.2-4.1,1.2-6.6s-0.4-4.7-1.2-6.6
		c-0.8-1.9-1.8-3.6-3.2-4.9c-1.3-1.3-2.9-2.4-4.6-3.1c-1.8-0.7-3.6-1.1-5.4-1.1c-1.9,0-3.8,0.4-5.5,1.1c-1.7,0.7-3.2,1.7-4.6,3.1
		c-1.3,1.3-2.4,3-3.2,4.9c-0.8,1.9-1.2,4.1-1.2,6.6s0.4,4.7,1.2,6.6c0.8,1.9,1.8,3.6,3.2,4.9s2.9,2.4,4.6,3.1
		C293.8,101.8,295.6,102.1,297.5,102.1z"/>
	<path fill="#FFFFFF" d="M335,59h13.8v7.6h0.9c0.7-1.3,1.6-2.6,2.7-3.7s2.4-2.1,3.8-2.9c1.4-0.8,2.9-1.5,4.5-2
		c1.6-0.5,3.2-0.8,4.8-0.8c1.9,0,3.6,0.2,5,0.6c1.4,0.4,2.6,1,3.5,1.6l-3.9,13.1c-0.9-0.4-1.9-0.8-3-1.1c-1.1-0.3-2.4-0.4-4-0.4
		c-2,0-3.8,0.4-5.5,1.2c-1.6,0.8-3,1.9-4.2,3.3c-1.2,1.4-2.1,3.1-2.7,5c-0.6,1.9-1,4-1,6.2v27H335V59z"/>
	<path fill="#FFFFFF" d="M380.5,59h13.8v7.2h0.9c1.7-2.7,4-4.9,7-6.5c2.9-1.6,6.2-2.5,9.8-2.5c4.2,0,7.7,1,10.5,2.9
		c2.8,1.9,4.9,4.3,6,7.2c1.7-2.8,4.1-5.1,7.3-7.1c3.1-2,6.9-3,11.4-3c3.4,0,6.3,0.5,8.7,1.6c2.5,1.1,4.5,2.6,6.1,4.5
		c1.6,1.9,2.8,4.3,3.6,7c0.8,2.7,1.2,5.7,1.2,8.9v34.6h-14.7V82c0-7.5-3.1-11.2-9.2-11.2c-1.9,0-3.7,0.4-5.2,1.3
		c-1.5,0.9-2.7,2-3.8,3.5c-1,1.5-1.8,3.2-2.4,5.2s-0.8,4.2-0.8,6.5v26.7h-14.7V82c0-7.5-3.2-11.2-9.6-11.2c-1.9,0-3.5,0.4-4.9,1.3
		c-1.4,0.9-2.6,2-3.6,3.5c-1,1.5-1.7,3.2-2.2,5.2c-0.5,2-0.8,4.2-0.8,6.5v26.7h-14.7V59z"/>
</g>
</svg>
