<?xml version="1.0" encoding="utf-8"?>
<!-- Generator: Adobe Illustrator 24.1.2, SVG Export Plug-In . SVG Version: 6.00 Build 0)  -->
<svg version="1.0" id="Capa_1" xmlns="http://www.w3.org/2000/svg" xmlns:xlink="http://www.w3.org/1999/xlink" x="0px" y="0px"
	 width="629px" height="155px" viewBox="0 0 629 155" enable-background="new 0 0 629 155" xml:space="preserve">
<g>
	<path fill="#FFFFFF" d="M163.1,117V36.8h28.2c3.8,0,7.4,0.6,10.7,1.8c3.3,1.2,6.2,3,8.7,5.2c2.5,2.2,4.4,4.9,5.8,8
		c1.4,3.1,2.1,6.5,2.1,10.2c0,3.8-0.7,7.3-2.1,10.4c-1.4,3.1-3.4,5.8-5.8,8s-5.4,4-8.7,5.2c-3.3,1.2-6.9,1.8-10.7,1.8h-13.1V117
		H163.1z M191.5,73.2c4,0,6.9-1.1,9-3.4c2-2.2,3-4.8,3-7.7c0-1.4-0.2-2.8-0.7-4.1c-0.5-1.3-1.2-2.5-2.2-3.5c-1-1-2.3-1.8-3.8-2.4
		c-1.5-0.6-3.2-0.9-5.3-0.9h-13.3v22.1H191.5z"/>
	<path fill="#FFFFFF" d="M264.4,109.8h-0.9c-1.7,2.8-4,4.9-6.9,6.6s-6.2,2.4-10,2.4c-6.9,0-12.1-2.1-15.5-6.4
		c-3.4-4.3-5.1-9.9-5.1-17V62.1h14.7v31.5c0,4,0.9,6.9,2.6,8.8c1.8,1.9,4.3,2.9,7.7,2.9c2,0,3.8-0.4,5.3-1.3c1.5-0.9,2.8-2,3.9-3.5
		c1.1-1.5,1.9-3.2,2.5-5.2c0.6-2,0.8-4.1,0.8-6.3V62.1h14.7V117h-13.8V109.8z"/>
	<path fill="#FFFFFF" d="M289.7,104.9l28-30.2h-27.1V62.1h45.1v12.1l-28,30.2h28.4V117h-46.5V104.9z"/>
	<path fill="#FFFFFF" d="M343.4,104.9l28-30.2h-27.1V62.1h45.1v12.1l-28,30.2h28.4V117h-46.5V104.9z"/>
	<path fill="#FFFFFF" d="M400.8,117V36.8h14.7V117H400.8z"/>
	<path fill="#FFFFFF" d="M479.5,103.8c-2.5,4.5-6,8.1-10.2,10.9c-4.3,2.8-9.5,4.1-15.7,4.1c-4.2,0-8-0.7-11.6-2.2
		c-3.5-1.5-6.6-3.5-9.2-6.1c-2.6-2.6-4.6-5.7-6.1-9.2c-1.5-3.5-2.2-7.4-2.2-11.7c0-4,0.7-7.7,2.1-11.3c1.4-3.5,3.4-6.6,5.9-9.3
		c2.5-2.6,5.5-4.8,9-6.3c3.5-1.6,7.3-2.4,11.5-2.4c4.4,0,8.3,0.7,11.8,2.2c3.4,1.5,6.3,3.5,8.6,6c2.3,2.6,4.1,5.6,5.3,9.1
		c1.2,3.5,1.8,7.3,1.8,11.4c0,0.5,0,1,0,1.3c-0.1,0.4-0.1,0.9-0.1,1.2c-0.1,0.4-0.1,0.8-0.1,1.2h-41.3c0.3,2.2,0.9,4.2,1.8,5.8
		c0.9,1.6,2.1,3,3.5,4c1.4,1.1,2.9,1.9,4.5,2.4c1.6,0.5,3.3,0.7,5,0.7c3.4,0,6.1-0.8,8.3-2.3c2.2-1.5,3.9-3.5,5.2-5.8L479.5,103.8z
		 M466.1,82.5c-0.1-1-0.4-2.1-1-3.2c-0.6-1.2-1.4-2.3-2.5-3.4c-1.1-1-2.4-1.9-4-2.6c-1.6-0.7-3.5-1-5.8-1c-3.1,0-5.9,0.9-8.3,2.7
		c-2.4,1.8-4.1,4.3-5,7.5H466.1z"/>
</g>
</svg>
