<?xml version="1.0" encoding="utf-8"?>
<!-- Generator: Adobe Illustrator 24.1.0, SVG Export Plug-In . SVG Version: 6.00 Build 0)  -->
<svg version="1.0" id="Capa_1" xmlns="http://www.w3.org/2000/svg" xmlns:xlink="http://www.w3.org/1999/xlink" x="0px" y="0px"
	 width="505px" height="155px" viewBox="0 0 505 155" enable-background="new 0 0 505 155" xml:space="preserve">
<g>
	<path fill="#FFFFFF" d="M86.8,33.7H116c4,0,7.7,0.6,11,1.9c3.3,1.3,6.1,3,8.5,5.3c2.4,2.2,4.2,4.9,5.4,8c1.3,3.1,1.9,6.5,1.9,10.1
		c0,2.7-0.4,5.2-1.3,7.6s-2.1,4.5-3.7,6.4s-3.4,3.6-5.5,5c-2.1,1.5-4.3,2.6-6.6,3.4l-0.1,0.8L147,113v0.9h-17.4l-20.7-30.1h-7.1
		v30.1H86.8V33.7z M115.9,69.9c3.4,0,6.3-1,8.5-3.1c2.2-2.1,3.3-4.7,3.3-8c0-1.4-0.2-2.8-0.7-4.1c-0.5-1.3-1.2-2.5-2.2-3.6
		c-1-1-2.2-1.9-3.6-2.5c-1.5-0.6-3.1-1-5-1h-14.2v22.3H115.9z"/>
	<path fill="#FFFFFF" d="M187.7,108.1h-0.9c-1.7,2.1-3.8,3.9-6.2,5.4c-2.4,1.5-5.5,2.2-9.4,2.2c-2.8,0-5.5-0.5-8-1.4
		c-2.5-0.9-4.7-2.2-6.6-3.9c-1.9-1.6-3.3-3.6-4.4-5.9c-1-2.3-1.6-4.9-1.6-7.6c0-2.8,0.6-5.4,1.7-7.7c1.1-2.3,2.7-4.2,4.7-5.9
		c2-1.6,4.4-2.9,7.1-3.8c2.7-0.9,5.7-1.3,8.9-1.3c3.6,0,6.5,0.3,8.8,0.8c2.3,0.6,4.2,1.1,5.7,1.7v-1.7c0-2.9-1.2-5.3-3.5-7.2
		c-2.3-1.9-5.2-2.9-8.6-2.9c-5.1,0-9.4,2.1-12.9,6.4l-10.6-7.3c5.8-7.3,13.8-11,23.9-11c8.5,0,15,2,19.5,6c4.5,4,6.7,9.9,6.7,17.8
		v32.9h-14.4V108.1z M187.7,91.6c-1.7-0.8-3.5-1.5-5.3-2c-1.8-0.5-3.8-0.7-6-0.7c-3.5,0-6.2,0.8-8.1,2.3c-1.9,1.5-2.9,3.4-2.9,5.7
		s0.9,4,2.7,5.4c1.8,1.3,3.9,2,6.3,2c1.9,0,3.7-0.4,5.4-1.1c1.6-0.7,3-1.6,4.2-2.8c1.2-1.2,2.1-2.5,2.7-4
		C187.4,94.8,187.7,93.3,187.7,91.6z"/>
	<path fill="#FFFFFF" d="M265.3,99.9c-2.4,4.6-5.7,8.4-10,11.4c-4.3,2.9-9.7,4.4-16.1,4.4c-4.3,0-8.2-0.7-11.7-2.2
		c-3.5-1.5-6.6-3.5-9.2-6.1c-2.6-2.6-4.6-5.7-6-9.2c-1.5-3.5-2.2-7.4-2.2-11.7s0.7-8.2,2.2-11.8c1.5-3.6,3.5-6.7,6-9.2
		c2.6-2.6,5.6-4.6,9.2-6c3.5-1.5,7.4-2.2,11.7-2.2c6.3,0,11.7,1.5,16,4.4c4.3,2.9,7.5,6.7,9.5,11.3l-13.4,5.6
		c-1.3-2.5-2.9-4.5-4.9-5.8c-2-1.3-4.5-2-7.4-2c-1.9,0-3.8,0.4-5.5,1.1c-1.7,0.7-3.2,1.8-4.5,3.1c-1.3,1.3-2.3,3-3.1,4.9
		c-0.7,1.9-1.1,4.1-1.1,6.5c0,2.4,0.4,4.6,1.1,6.5c0.7,1.9,1.8,3.6,3.1,4.9c1.3,1.3,2.8,2.4,4.5,3.1c1.7,0.7,3.5,1.1,5.5,1.1
		c3.1,0,5.7-0.7,7.8-2.1c2.1-1.4,3.8-3.4,5.1-6L265.3,99.9z"/>
	<path fill="#FFFFFF" d="M282.4,51.6c-1.3,0-2.5-0.2-3.6-0.7c-1.2-0.5-2.2-1.2-3-2c-0.9-0.9-1.5-1.8-2-3c-0.5-1.1-0.7-2.4-0.7-3.7
		c0-1.3,0.2-2.6,0.7-3.7c0.5-1.1,1.2-2.1,2-3c0.9-0.9,1.9-1.5,3-2c1.2-0.5,2.4-0.7,3.6-0.7c2.6,0,4.9,0.9,6.7,2.7
		c1.9,1.8,2.8,4.1,2.8,6.7c0,2.6-0.9,4.8-2.8,6.7C287.3,50.7,285,51.6,282.4,51.6z M275.1,113.9V59h14.7v54.9H275.1z"/>
	<path fill="#FFFFFF" d="M317,66.2h0.9c1.7-2.8,4-4.9,6.9-6.6c2.9-1.6,6.2-2.4,10-2.4c3.4,0,6.5,0.6,9.1,1.7
		c2.6,1.1,4.8,2.7,6.4,4.8c1.7,2.1,2.9,4.5,3.8,7.4c0.9,2.9,1.3,6.1,1.3,9.6v33.3h-14.7V82.4c0-4-0.9-6.9-2.6-8.8
		c-1.8-1.9-4.3-2.9-7.7-2.9c-2,0-3.8,0.4-5.3,1.3c-1.5,0.9-2.8,2-3.9,3.5c-1.1,1.5-1.9,3.2-2.5,5.2c-0.6,2-0.8,4.1-0.8,6.3v26.9
		h-14.7V59H317V66.2z"/>
	<path fill="#FFFFFF" d="M392.3,139.9c-3.9,0-7.3-0.5-10.4-1.5c-3-1-5.7-2.3-7.9-3.9c-2.2-1.6-4.1-3.4-5.6-5.3
		c-1.5-1.9-2.6-3.9-3.2-5.8l14-5.6c1,2.9,2.8,5.2,5.2,6.8c2.4,1.6,5,2.4,8,2.4c4.6,0,8.3-1.5,11-4.5c2.7-3,4-7.1,4-12.4v-3.8h-0.9
		c-1.7,2.4-4,4.3-6.8,5.7c-2.8,1.4-6.1,2.1-9.9,2.1c-3.3,0-6.5-0.7-9.6-2c-3.1-1.3-5.8-3.2-8.2-5.7c-2.4-2.5-4.3-5.5-5.8-8.9
		c-1.5-3.5-2.2-7.4-2.2-11.6s0.7-8.2,2.2-11.7c1.5-3.5,3.4-6.5,5.8-9c2.4-2.5,5.1-4.4,8.2-5.7c3.1-1.3,6.3-2,9.6-2
		c3.8,0,7.1,0.7,9.9,2.1c2.8,1.4,5.1,3.3,6.8,5.7h0.9V59h14v51c0,4.6-0.7,8.8-2.1,12.5c-1.4,3.7-3.4,6.8-5.9,9.4
		c-2.5,2.6-5.6,4.6-9.1,5.9C400.6,139.2,396.6,139.9,392.3,139.9z M392.9,100.7c1.8,0,3.6-0.3,5.3-1c1.8-0.7,3.3-1.6,4.6-2.9
		c1.3-1.3,2.4-2.9,3.2-4.7c0.8-1.9,1.2-4,1.2-6.4c0-2.4-0.4-4.6-1.2-6.5c-0.8-1.9-1.9-3.5-3.2-4.8c-1.3-1.3-2.9-2.3-4.6-2.9
		c-1.8-0.7-3.5-1-5.3-1s-3.5,0.3-5.3,1c-1.7,0.7-3.2,1.6-4.6,3s-2.4,2.9-3.2,4.8c-0.8,1.9-1.2,4-1.2,6.4c0,2.4,0.4,4.6,1.2,6.4
		c0.8,1.9,1.9,3.4,3.2,4.7c1.3,1.3,2.9,2.3,4.6,2.9C389.3,100.4,391.1,100.7,392.9,100.7z"/>
</g>
</svg>
