<?xml version="1.0" encoding="utf-8"?>
<!-- Generator: Adobe Illustrator 24.1.0, SVG Export Plug-In . SVG Version: 6.00 Build 0)  -->
<svg version="1.0" id="Capa_1" xmlns="http://www.w3.org/2000/svg" xmlns:xlink="http://www.w3.org/1999/xlink" x="0px" y="0px"
	 width="629px" height="155px" viewBox="0 0 629 155" enable-background="new 0 0 629 155" xml:space="preserve">
<g>
	<path fill="#FFFFFF" d="M5.3,35.5h29.2c4,0,7.7,0.6,11,1.9c3.3,1.3,6.1,3,8.5,5.3c2.4,2.2,4.2,4.9,5.4,8c1.3,3.1,1.9,6.5,1.9,10.1
		c0,2.7-0.4,5.2-1.3,7.6s-2.1,4.5-3.7,6.4s-3.4,3.6-5.5,5c-2.1,1.5-4.3,2.6-6.6,3.4L44,84l21.5,30.8v0.9H48.2L27.4,85.6h-7.1v30.1
		H5.3V35.5z M34.4,71.7c3.4,0,6.3-1,8.5-3.1c2.2-2.1,3.3-4.7,3.3-8c0-1.4-0.2-2.8-0.7-4.1c-0.5-1.3-1.2-2.5-2.2-3.6
		c-1-1-2.2-1.9-3.6-2.5c-1.5-0.6-3.1-1-5-1H20.4v22.3H34.4z"/>
	<path fill="#FFFFFF" d="M109.8,108.5h-0.9c-1.7,2.8-4,4.9-6.9,6.6s-6.2,2.4-10,2.4c-6.9,0-12.1-2.1-15.5-6.4
		c-3.4-4.3-5.1-9.9-5.1-17V60.8H86v31.5c0,4,0.9,6.9,2.6,8.8c1.8,1.9,4.3,2.9,7.7,2.9c2,0,3.8-0.4,5.3-1.3c1.5-0.9,2.8-2,3.9-3.5
		c1.1-1.5,1.9-3.2,2.5-5.2c0.6-2,0.8-4.1,0.8-6.3V60.8h14.7v54.9h-13.8V108.5z"/>
	<path fill="#FFFFFF" d="M149.9,68h0.9c1.7-2.8,4-4.9,6.9-6.6c2.9-1.6,6.2-2.4,10-2.4c3.4,0,6.5,0.6,9.1,1.7
		c2.6,1.1,4.8,2.7,6.4,4.8c1.7,2.1,2.9,4.5,3.8,7.4c0.9,2.9,1.3,6.1,1.3,9.6v33.3h-14.7V84.2c0-4-0.9-6.9-2.6-8.8
		c-1.8-1.9-4.3-2.9-7.7-2.9c-2,0-3.8,0.4-5.3,1.3c-1.5,0.9-2.8,2-3.9,3.5c-1.1,1.5-1.9,3.2-2.5,5.2c-0.6,2-0.8,4.1-0.8,6.3v26.9
		h-14.7V60.8h13.8V68z"/>
	<path fill="#FFFFFF" d="M258.8,109.9h-0.9c-1.7,2.1-3.8,3.9-6.2,5.4c-2.4,1.5-5.5,2.2-9.4,2.2c-2.8,0-5.5-0.5-8-1.4
		c-2.5-0.9-4.7-2.2-6.6-3.9c-1.9-1.6-3.3-3.6-4.4-5.9c-1-2.3-1.6-4.9-1.6-7.6c0-2.8,0.6-5.4,1.7-7.7c1.1-2.3,2.7-4.2,4.7-5.9
		c2-1.6,4.4-2.9,7.1-3.8c2.7-0.9,5.7-1.3,8.9-1.3c3.6,0,6.5,0.3,8.8,0.8c2.3,0.6,4.2,1.1,5.7,1.7V81c0-2.9-1.2-5.3-3.5-7.2
		c-2.3-1.9-5.2-2.9-8.6-2.9c-5.1,0-9.4,2.1-12.9,6.4L223.2,70c5.8-7.3,13.8-11,23.9-11c8.5,0,15,2,19.5,6c4.5,4,6.7,9.9,6.7,17.8
		v32.9h-14.4V109.9z M258.8,93.4c-1.7-0.8-3.5-1.5-5.3-2c-1.8-0.5-3.8-0.7-6-0.7c-3.5,0-6.2,0.8-8.1,2.3c-1.9,1.5-2.9,3.4-2.9,5.7
		s0.9,4,2.7,5.4c1.8,1.3,3.9,2,6.3,2c1.9,0,3.7-0.4,5.4-1.1c1.6-0.7,3-1.6,4.2-2.8c1.2-1.2,2.1-2.5,2.7-4
		C258.5,96.6,258.8,95.1,258.8,93.4z"/>
	<path fill="#FFFFFF" d="M298.7,68h0.9c1.7-2.8,4-4.9,6.9-6.6c2.9-1.6,6.2-2.4,10-2.4c3.4,0,6.5,0.6,9.1,1.7
		c2.6,1.1,4.8,2.7,6.4,4.8c1.7,2.1,2.9,4.5,3.8,7.4c0.9,2.9,1.3,6.1,1.3,9.6v33.3h-14.7V84.2c0-4-0.9-6.9-2.6-8.8
		c-1.8-1.9-4.3-2.9-7.7-2.9c-2,0-3.8,0.4-5.3,1.3c-1.5,0.9-2.8,2-3.9,3.5c-1.1,1.5-1.9,3.2-2.5,5.2c-0.6,2-0.8,4.1-0.8,6.3v26.9
		h-14.7V60.8h13.8V68z"/>
	<path fill="#FFFFFF" d="M390.1,109.1h-0.9c-1.3,2.3-3.4,4.3-6.3,5.9c-2.8,1.6-6.3,2.5-10.5,2.5c-3.5,0-6.9-0.7-10-2.2
		c-3.2-1.5-6-3.5-8.4-6c-2.4-2.6-4.4-5.7-5.8-9.2c-1.4-3.6-2.1-7.5-2.1-11.8s0.7-8.2,2.1-11.8c1.4-3.6,3.3-6.7,5.8-9.2
		c2.4-2.6,5.2-4.6,8.4-6c3.2-1.5,6.5-2.2,10-2.2c4.2,0,7.7,0.8,10.5,2.5c2.8,1.6,4.9,3.6,6.3,5.9h0.9l-0.9-7.8V35.5h14.7v80.2h-13.8
		V109.1z M375.4,103.9c1.9,0,3.8-0.4,5.5-1.1c1.8-0.7,3.3-1.7,4.6-3.1s2.4-3,3.2-4.9c0.8-1.9,1.2-4.1,1.2-6.6s-0.4-4.7-1.2-6.6
		c-0.8-1.9-1.9-3.6-3.2-4.9c-1.3-1.3-2.9-2.4-4.6-3.1c-1.8-0.7-3.6-1.1-5.5-1.1c-1.9,0-3.8,0.4-5.5,1.1c-1.8,0.7-3.3,1.8-4.6,3.1
		c-1.3,1.3-2.4,3-3.2,4.9c-0.8,1.9-1.2,4.1-1.2,6.5c0,2.4,0.4,4.6,1.2,6.5c0.8,1.9,1.9,3.6,3.2,4.9c1.3,1.3,2.9,2.4,4.6,3.1
		C371.6,103.6,373.5,103.9,375.4,103.9z"/>
	<path fill="#FFFFFF" d="M466.4,141.7c-3.9,0-7.3-0.5-10.4-1.5c-3-1-5.7-2.3-7.9-3.9c-2.2-1.6-4.1-3.4-5.6-5.3
		c-1.5-1.9-2.6-3.9-3.2-5.8l14-5.6c1,2.9,2.8,5.2,5.2,6.8c2.4,1.6,5,2.4,8,2.4c4.6,0,8.3-1.5,11-4.5c2.7-3,4-7.1,4-12.4V108h-0.9
		c-1.7,2.4-4,4.3-6.8,5.7c-2.8,1.4-6.1,2.1-9.9,2.1c-3.3,0-6.5-0.7-9.6-2c-3.1-1.3-5.8-3.2-8.2-5.7c-2.4-2.5-4.3-5.5-5.8-8.9
		c-1.5-3.5-2.2-7.4-2.2-11.6s0.7-8.2,2.2-11.7c1.5-3.5,3.4-6.5,5.8-9c2.4-2.5,5.1-4.4,8.2-5.7c3.1-1.3,6.3-2,9.6-2
		c3.8,0,7.1,0.7,9.9,2.1c2.8,1.4,5.1,3.3,6.8,5.7h0.9v-5.9h14v51c0,4.6-0.7,8.8-2.1,12.5c-1.4,3.7-3.4,6.8-5.9,9.4
		c-2.5,2.6-5.6,4.6-9.1,5.9C474.6,141,470.7,141.7,466.4,141.7z M466.9,102.5c1.8,0,3.6-0.3,5.3-1c1.8-0.7,3.3-1.6,4.6-2.9
		c1.3-1.3,2.4-2.9,3.2-4.7c0.8-1.9,1.2-4,1.2-6.4c0-2.4-0.4-4.6-1.2-6.5c-0.8-1.9-1.9-3.5-3.2-4.8c-1.3-1.3-2.9-2.3-4.6-2.9
		c-1.8-0.7-3.5-1-5.3-1s-3.5,0.3-5.3,1c-1.7,0.7-3.2,1.6-4.6,3s-2.4,2.9-3.2,4.8c-0.8,1.9-1.2,4-1.2,6.4c0,2.4,0.4,4.6,1.2,6.4
		c0.8,1.9,1.9,3.4,3.2,4.7c1.3,1.3,2.9,2.3,4.6,2.9C463.4,102.2,465.1,102.5,466.9,102.5z"/>
	<path fill="#FFFFFF" d="M545.3,108.5h-0.9c-1.7,2.8-4,4.9-6.9,6.6c-2.9,1.6-6.2,2.4-10,2.4c-6.9,0-12.1-2.1-15.5-6.4
		c-3.4-4.3-5.1-9.9-5.1-17V60.8h14.7v31.5c0,4,0.9,6.9,2.6,8.8c1.8,1.9,4.3,2.9,7.7,2.9c2,0,3.8-0.4,5.3-1.3c1.5-0.9,2.8-2,3.9-3.5
		c1.1-1.5,1.9-3.2,2.5-5.2c0.6-2,0.8-4.1,0.8-6.3V60.8h14.7v54.9h-13.8V108.5z"/>
	<path fill="#FFFFFF" d="M585.4,68h0.9c1.7-2.8,4-4.9,6.9-6.6c2.9-1.6,6.2-2.4,10-2.4c3.4,0,6.5,0.6,9.1,1.7
		c2.6,1.1,4.8,2.7,6.4,4.8c1.7,2.1,2.9,4.5,3.8,7.4c0.9,2.9,1.3,6.1,1.3,9.6v33.3h-14.7V84.2c0-4-0.9-6.9-2.6-8.8
		c-1.8-1.9-4.3-2.9-7.7-2.9c-2,0-3.8,0.4-5.3,1.3c-1.5,0.9-2.8,2-3.9,3.5c-1.1,1.5-1.9,3.2-2.5,5.2c-0.6,2-0.8,4.1-0.8,6.3v26.9
		h-14.7V60.8h13.8V68z"/>
</g>
</svg>
