<?xml version="1.0" encoding="utf-8"?>
<!-- Generator: Adobe Illustrator 24.1.0, SVG Export Plug-In . SVG Version: 6.00 Build 0)  -->
<svg version="1.0" id="Capa_1" xmlns="http://www.w3.org/2000/svg" xmlns:xlink="http://www.w3.org/1999/xlink" x="0px" y="0px"
	 width="629px" height="155px" viewBox="0 0 629 155" enable-background="new 0 0 629 155" xml:space="preserve">
<g>
	<path fill="#FFFFFF" d="M30.8,118c-3.3,0-6.4-0.5-9.3-1.4c-3-0.9-5.7-2.3-8.2-4.1c-2.5-1.8-4.6-4.1-6.5-6.7
		c-1.8-2.6-3.3-5.7-4.3-9.3L16,91.2c1,3.8,2.7,7,5.2,9.5c2.5,2.5,5.7,3.8,9.8,3.8c1.5,0,2.9-0.2,4.3-0.6c1.4-0.4,2.6-1,3.7-1.7
		c1.1-0.7,2-1.7,2.6-2.8c0.6-1.1,1-2.4,1-3.9c0-1.4-0.2-2.7-0.7-3.8c-0.5-1.1-1.3-2.2-2.5-3.2c-1.2-1-2.7-1.9-4.6-2.9
		c-1.9-0.9-4.2-1.9-6.9-2.9L23.1,81c-2.1-0.7-4.1-1.7-6.2-2.9c-2.1-1.2-4-2.6-5.7-4.3c-1.7-1.7-3.1-3.7-4.2-6
		C6,65.5,5.4,62.9,5.4,60c0-3,0.6-5.7,1.7-8.3c1.2-2.6,2.8-4.8,5-6.8c2.2-1.9,4.7-3.5,7.7-4.6c3-1.1,6.3-1.6,10-1.6
		c3.8,0,7.1,0.5,9.9,1.5c2.8,1,5.2,2.3,7.1,3.9c1.9,1.6,3.5,3.3,4.7,5.2c1.2,1.9,2.1,3.7,2.6,5.4l-12.6,5.3c-0.7-2.1-2-4-3.9-5.7
		c-1.9-1.7-4.4-2.5-7.7-2.5c-3.1,0-5.7,0.7-7.7,2.2c-2.1,1.4-3.1,3.3-3.1,5.7c0,2.3,1,4.2,3,5.8c2,1.6,5.1,3.1,9.4,4.6l4.8,1.6
		c3,1.1,5.8,2.3,8.3,3.7c2.5,1.4,4.7,3,6.5,4.9c1.8,1.9,3.2,4.1,4.1,6.5c1,2.4,1.4,5.2,1.4,8.4c0,4-0.8,7.4-2.4,10.2
		c-1.6,2.9-3.6,5.2-6.1,7c-2.5,1.8-5.3,3.2-8.4,4.1C36.9,117.5,33.8,118,30.8,118z"/>
	<path fill="#FFFFFF" d="M66.9,40.4h13.9v21.3l-0.8,9.4h0.8c1.5-2.5,3.6-4.5,6.4-6.1c2.8-1.6,5.9-2.4,9.4-2.4c6.7,0,11.7,2,14.9,5.9
		c3.2,4,4.8,9.4,4.8,16.2v31.5h-13.9V86.5c0-3.6-0.8-6.3-2.5-8.2c-1.7-1.9-4.1-2.8-7.1-2.8c-1.9,0-3.6,0.4-5.1,1.2
		c-1.5,0.8-2.7,1.9-3.8,3.3c-1,1.4-1.8,3.1-2.3,4.9c-0.5,1.9-0.8,3.9-0.8,6v25.3H66.9V40.4z"/>
	<path fill="#FFFFFF" d="M152.3,62.7c4,0,7.7,0.7,11.1,2.1c3.4,1.4,6.3,3.3,8.7,5.7s4.3,5.4,5.7,8.7c1.4,3.4,2.1,7.1,2.1,11.1
		s-0.7,7.7-2.1,11.1s-3.3,6.3-5.7,8.7c-2.4,2.4-5.3,4.3-8.7,5.7c-3.4,1.4-7,2.1-11.1,2.1c-4,0-7.7-0.7-11.1-2.1
		c-3.4-1.4-6.3-3.3-8.7-5.7c-2.4-2.4-4.3-5.4-5.7-8.7s-2.1-7.1-2.1-11.1s0.7-7.7,2.1-11.1c1.4-3.4,3.3-6.3,5.7-8.7s5.3-4.3,8.7-5.7
		C144.6,63.4,148.3,62.7,152.3,62.7z M152.3,105.2c1.8,0,3.5-0.3,5.1-1c1.7-0.7,3.1-1.6,4.4-2.9s2.3-2.8,3-4.7
		c0.7-1.8,1.1-3.9,1.1-6.3s-0.4-4.4-1.1-6.3c-0.7-1.8-1.7-3.4-3-4.7c-1.3-1.3-2.7-2.2-4.4-2.9c-1.7-0.7-3.4-1-5.1-1
		c-1.8,0-3.6,0.3-5.2,1c-1.6,0.7-3.1,1.6-4.3,2.9c-1.3,1.3-2.3,2.8-3,4.7c-0.7,1.8-1.1,3.9-1.1,6.3s0.4,4.4,1.1,6.3
		c0.7,1.8,1.7,3.4,3,4.7s2.7,2.2,4.3,2.9C148.8,104.8,150.5,105.2,152.3,105.2z"/>
	<path fill="#FFFFFF" d="M213.4,62.7c4,0,7.7,0.7,11.1,2.1c3.4,1.4,6.3,3.3,8.7,5.7s4.3,5.4,5.7,8.7c1.4,3.4,2.1,7.1,2.1,11.1
		s-0.7,7.7-2.1,11.1s-3.3,6.3-5.7,8.7c-2.4,2.4-5.3,4.3-8.7,5.7c-3.4,1.4-7,2.1-11.1,2.1c-4,0-7.7-0.7-11.1-2.1
		c-3.4-1.4-6.3-3.3-8.7-5.7c-2.4-2.4-4.3-5.4-5.7-8.7s-2.1-7.1-2.1-11.1s0.7-7.7,2.1-11.1c1.4-3.4,3.3-6.3,5.7-8.7s5.3-4.3,8.7-5.7
		C205.7,63.4,209.3,62.7,213.4,62.7z M213.4,105.2c1.8,0,3.5-0.3,5.1-1c1.7-0.7,3.1-1.6,4.4-2.9s2.3-2.8,3-4.7
		c0.7-1.8,1.1-3.9,1.1-6.3s-0.4-4.4-1.1-6.3c-0.7-1.8-1.7-3.4-3-4.7c-1.3-1.3-2.7-2.2-4.4-2.9c-1.7-0.7-3.4-1-5.1-1
		c-1.8,0-3.6,0.3-5.2,1c-1.6,0.7-3.1,1.6-4.3,2.9c-1.3,1.3-2.3,2.8-3,4.7c-0.7,1.8-1.1,3.9-1.1,6.3s0.4,4.4,1.1,6.3
		c0.7,1.8,1.7,3.4,3,4.7s2.7,2.2,4.3,2.9C209.8,104.8,211.5,105.2,213.4,105.2z"/>
	<path fill="#FFFFFF" d="M254,76.2h-9.1V64.4h9.1V48.5h13.9v15.9h12.7v11.9h-12.7V97c0,1.2,0.1,2.4,0.4,3.4c0.2,1.1,0.7,1.9,1.4,2.7
		c1,1.2,2.4,1.7,4.2,1.7c1.2,0,2.2-0.1,2.9-0.4c0.7-0.2,1.4-0.6,2-1l3.9,12.2c-1.6,0.8-3.4,1.4-5.2,1.7c-1.9,0.4-3.9,0.6-6.2,0.6
		c-2.6,0-5-0.4-7-1.2c-2.1-0.8-3.8-2-5.2-3.4c-3.3-3.2-5-7.9-5-13.8V76.2z"/>
	<path fill="#FFFFFF" d="M331.3,42.1l-5.4,8.5c1.6,0.6,3,1.6,4,3.1c1.1,1.5,1.6,3.3,1.6,5.4c0,2.6-0.9,4.9-2.7,6.7
		c-1.8,1.9-3.9,2.8-6.5,2.8s-4.7-0.9-6.5-2.8c-1.8-1.8-2.7-4.1-2.7-6.7c0-1.4,0.2-2.6,0.7-3.7c0.5-1.1,1.1-2.2,2-3.5l9.2-14
		L331.3,42.1z"/>
	<path fill="#FFFFFF" d="M385.4,103.8c-2.4,4.2-5.6,7.7-9.7,10.3c-4.1,2.6-9,3.9-14.9,3.9c-4,0-7.6-0.7-11-2.1
		c-3.4-1.4-6.3-3.3-8.7-5.8c-2.5-2.5-4.4-5.4-5.8-8.7c-1.4-3.4-2.1-7-2.1-11.1c0-3.7,0.7-7.3,2-10.7c1.3-3.4,3.2-6.3,5.6-8.8
		c2.4-2.5,5.2-4.5,8.5-6c3.3-1.5,6.9-2.2,10.9-2.2c4.2,0,7.9,0.7,11.1,2.1c3.2,1.4,6,3.3,8.2,5.7c2.2,2.4,3.9,5.3,5,8.6
		c1.1,3.3,1.7,6.9,1.7,10.8c0,0.5,0,0.9,0,1.3c-0.1,0.4-0.1,0.8-0.1,1.2c-0.1,0.4-0.1,0.7-0.1,1.2h-39.1c0.3,2.1,0.9,3.9,1.7,5.5
		c0.9,1.5,2,2.8,3.3,3.8c1.3,1,2.7,1.8,4.3,2.2c1.6,0.5,3.1,0.7,4.8,0.7c3.2,0,5.8-0.7,7.9-2.2c2.1-1.4,3.7-3.3,4.9-5.5L385.4,103.8
		z M372.8,83.7c-0.1-0.9-0.4-1.9-0.9-3.1c-0.5-1.1-1.3-2.2-2.3-3.2c-1-1-2.3-1.8-3.8-2.4c-1.5-0.6-3.3-1-5.5-1c-3,0-5.6,0.8-7.8,2.5
		c-2.3,1.7-3.9,4.1-4.8,7.1H372.8z"/>
	<path fill="#FFFFFF" d="M395.2,64.4h13v6.8h0.8c1.6-2.5,3.8-4.6,6.6-6.1c2.8-1.6,5.9-2.3,9.3-2.3c4,0,7.3,0.9,10,2.8
		c2.7,1.8,4.6,4.1,5.7,6.8c1.6-2.6,3.9-4.9,6.9-6.7c3-1.9,6.6-2.8,10.8-2.8c3.2,0,5.9,0.5,8.3,1.5c2.3,1,4.3,2.5,5.8,4.3
		c1.5,1.8,2.7,4,3.4,6.6c0.8,2.6,1.2,5.4,1.2,8.4v32.8h-13.9V86.1c0-7.1-2.9-10.6-8.7-10.6c-1.8,0-3.5,0.4-4.9,1.2
		c-1.4,0.8-2.6,1.9-3.6,3.3s-1.7,3-2.2,4.9s-0.8,4-0.8,6.1v25.2h-13.9V86.1c0-7.1-3-10.6-9.1-10.6c-1.8,0-3.3,0.4-4.7,1.2
		c-1.3,0.8-2.5,1.9-3.4,3.3c-0.9,1.4-1.6,3-2.1,4.9c-0.5,1.9-0.7,4-0.7,6.1v25.2h-13.9V64.4z"/>
	<path fill="#FFFFFF" d="M547.7,109.5h-0.8c-1.6,2.6-3.8,4.7-6.6,6.2s-5.9,2.3-9.4,2.3c-6.6,0-11.5-2-14.7-6
		c-3.2-4-4.8-9.4-4.8-16.1V64.4h13.9v29.8c0,3.7,0.8,6.5,2.5,8.3c1.7,1.8,4.1,2.7,7.3,2.7c1.9,0,3.6-0.4,5-1.2
		c1.4-0.8,2.7-1.9,3.7-3.3s1.8-3,2.3-4.9c0.5-1.9,0.8-3.9,0.8-6V64.4h13.9v51.9h-13V109.5z"/>
	<path fill="#FFFFFF" d="M572.2,64.4h13v6.3h0.8c1.3-2.2,3.2-4.1,5.9-5.6c2.7-1.6,6-2.3,10-2.3c3.3,0,6.5,0.7,9.5,2.1
		c3,1.4,5.7,3.3,8,5.7c2.3,2.4,4.1,5.4,5.5,8.7c1.3,3.4,2,7.1,2,11.1s-0.7,7.7-2,11.1c-1.3,3.4-3.2,6.3-5.5,8.7
		c-2.3,2.4-4.9,4.3-8,5.7c-3,1.4-6.2,2.1-9.5,2.1c-4,0-7.3-0.8-10-2.3c-2.7-1.6-4.7-3.4-5.9-5.6h-0.8l0.8,7.4v21.7h-13.9V64.4z
		 M599.1,105.2c1.8,0,3.6-0.4,5.2-1.1c1.7-0.7,3.1-1.7,4.4-3c1.3-1.3,2.3-2.8,3.1-4.7c0.8-1.8,1.2-3.9,1.2-6.1
		c0-2.3-0.4-4.3-1.2-6.1c-0.8-1.8-1.8-3.4-3.1-4.7c-1.3-1.3-2.7-2.3-4.4-3c-1.7-0.7-3.4-1.1-5.2-1.1c-1.8,0-3.6,0.3-5.2,1
		c-1.7,0.7-3.1,1.6-4.4,2.9c-1.3,1.3-2.3,2.8-3.1,4.7c-0.8,1.8-1.2,3.9-1.2,6.3s0.4,4.4,1.2,6.3c0.8,1.8,1.8,3.4,3.1,4.7
		c1.3,1.3,2.7,2.2,4.4,2.9C595.5,104.8,597.3,105.2,599.1,105.2z"/>
</g>
</svg>
