<?xml version="1.0" encoding="utf-8"?>
<!-- Generator: Adobe Illustrator 24.1.2, SVG Export Plug-In . SVG Version: 6.00 Build 0)  -->
<svg version="1.0" id="Capa_1" xmlns="http://www.w3.org/2000/svg" xmlns:xlink="http://www.w3.org/1999/xlink" x="0px" y="0px"
	 width="505px" height="155px" viewBox="0 0 505 155" enable-background="new 0 0 505 155" xml:space="preserve">
<g>
	<path fill="#FFFFFF" d="M119.6,114.8c-3.4,0-6.7-0.5-9.9-1.5c-3.1-1-6-2.4-8.6-4.4c-2.6-1.9-4.9-4.3-6.8-7.1
		c-1.9-2.8-3.5-6.1-4.6-9.8l14.2-5.6c1,4,2.9,7.4,5.5,10c2.6,2.7,6,4,10.3,4c1.6,0,3.1-0.2,4.5-0.6c1.5-0.4,2.8-1,3.9-1.8
		c1.2-0.8,2.1-1.8,2.7-3c0.7-1.2,1-2.6,1-4.1c0-1.5-0.3-2.8-0.8-4c-0.5-1.2-1.4-2.3-2.6-3.4c-1.2-1-2.8-2.1-4.8-3c-2-1-4.4-2-7.3-3
		l-4.9-1.8c-2.2-0.7-4.4-1.8-6.6-3c-2.2-1.3-4.2-2.8-6-4.6s-3.3-3.9-4.4-6.3c-1.2-2.4-1.7-5.2-1.7-8.2c0-3.1,0.6-6.1,1.8-8.8
		c1.2-2.7,3-5.1,5.3-7.2c2.3-2.1,5-3.7,8.2-4.8c3.2-1.2,6.7-1.7,10.6-1.7c4,0,7.5,0.5,10.5,1.6c2.9,1.1,5.5,2.5,7.5,4.1
		c2.1,1.7,3.7,3.5,5,5.5c1.3,2,2.2,3.9,2.8,5.7L131,53.6c-0.7-2.2-2.1-4.3-4.1-6c-2-1.8-4.7-2.7-8.1-2.7c-3.3,0-6,0.8-8.2,2.3
		c-2.2,1.5-3.2,3.5-3.2,6c0,2.4,1,4.4,3.1,6.1c2.1,1.7,5.4,3.3,10,4.9l5,1.7c3.2,1.1,6.1,2.4,8.8,3.9c2.6,1.5,4.9,3.2,6.8,5.2
		c1.9,2,3.4,4.3,4.4,6.9c1,2.6,1.5,5.5,1.5,8.9c0,4.2-0.8,7.8-2.5,10.8c-1.7,3-3.8,5.5-6.4,7.4c-2.6,1.9-5.6,3.4-8.8,4.4
		C125.9,114.3,122.7,114.8,119.6,114.8z"/>
	<path fill="#FFFFFF" d="M157.2,58.1H171v6.6h0.9c1.3-2.3,3.4-4.3,6.3-5.9c2.8-1.6,6.3-2.5,10.5-2.5c3.5,0,6.8,0.7,10,2.2
		c3.2,1.5,6,3.5,8.4,6c2.4,2.6,4.3,5.7,5.8,9.2c1.4,3.6,2.1,7.5,2.1,11.8s-0.7,8.2-2.1,11.8c-1.4,3.6-3.3,6.7-5.8,9.2
		c-2.4,2.6-5.2,4.6-8.4,6c-3.2,1.5-6.5,2.2-10,2.2c-4.2,0-7.7-0.8-10.5-2.5c-2.8-1.6-4.9-3.6-6.3-5.9H171l0.9,7.8v23h-14.7V58.1z
		 M185.7,101.2c1.9,0,3.8-0.4,5.5-1.1c1.8-0.7,3.3-1.8,4.6-3.1s2.4-3,3.2-4.9c0.8-1.9,1.2-4.1,1.2-6.5c0-2.4-0.4-4.6-1.2-6.5
		c-0.8-1.9-1.9-3.6-3.2-4.9c-1.3-1.3-2.9-2.4-4.6-3.1c-1.8-0.7-3.6-1.1-5.5-1.1c-1.9,0-3.8,0.4-5.5,1.1c-1.8,0.7-3.3,1.7-4.6,3.1
		c-1.3,1.3-2.4,3-3.2,4.9c-0.8,1.9-1.2,4.1-1.2,6.6c0,2.5,0.4,4.7,1.2,6.6c0.8,1.9,1.9,3.6,3.2,4.9s2.9,2.4,4.6,3.1
		C181.9,100.9,183.7,101.2,185.7,101.2z"/>
	<path fill="#FFFFFF" d="M250.4,56.3c4.3,0,8.2,0.7,11.7,2.2c3.5,1.5,6.6,3.5,9.2,6c2.6,2.6,4.6,5.7,6,9.2s2.2,7.5,2.2,11.8
		s-0.7,8.2-2.2,11.8s-3.5,6.7-6,9.2c-2.6,2.6-5.6,4.6-9.2,6c-3.5,1.5-7.4,2.2-11.7,2.2s-8.2-0.7-11.7-2.2c-3.5-1.5-6.6-3.5-9.2-6
		s-4.6-5.7-6-9.2s-2.2-7.5-2.2-11.8s0.7-8.2,2.2-11.8s3.5-6.7,6-9.2s5.6-4.6,9.2-6C242.2,57.1,246.2,56.3,250.4,56.3z M250.4,101.2
		c1.9,0,3.7-0.4,5.4-1.1c1.8-0.7,3.3-1.7,4.6-3.1s2.4-3,3.2-4.9c0.8-1.9,1.2-4.1,1.2-6.6c0-2.5-0.4-4.7-1.2-6.6
		c-0.8-1.9-1.8-3.6-3.2-4.9c-1.3-1.3-2.9-2.4-4.6-3.1c-1.8-0.7-3.6-1.1-5.4-1.1c-1.9,0-3.8,0.4-5.5,1.1c-1.7,0.7-3.2,1.7-4.6,3.1
		c-1.3,1.3-2.4,3-3.2,4.9c-0.8,1.9-1.2,4.1-1.2,6.6c0,2.5,0.4,4.7,1.2,6.6c0.8,1.9,1.8,3.6,3.2,4.9s2.9,2.4,4.6,3.1
		C246.6,100.9,248.5,101.2,250.4,101.2z"/>
	<path fill="#FFFFFF" d="M301.6,66.6h0.9c1.5-2.8,3.7-5,6.6-6.7c2.9-1.7,6.1-2.5,9.6-2.5c1.3,0,2.3,0,3,0.1c0.7,0.1,1.5,0.2,2.1,0.4
		v14.6c-0.8-0.4-1.7-0.7-2.7-0.9c-1-0.2-2.2-0.3-3.6-0.3c-4.6,0-8.3,1.4-10.9,4.2c-2.7,2.8-4,6.6-4,11.5v26.9h-14.7V59h13.8V66.6z
		 M340,70.7h-9.6V58.1h9.6V41.3h14.7v16.8h13.4v12.5h-13.4v21.9c0,1.3,0.1,2.5,0.4,3.6c0.3,1.1,0.8,2.1,1.5,2.8
		c1,1.2,2.5,1.8,4.5,1.8c1.3,0,2.3-0.1,3-0.4c0.7-0.3,1.5-0.6,2.1-1.1l4.1,12.9c-1.7,0.8-3.6,1.4-5.5,1.8c-2,0.4-4.2,0.6-6.6,0.6
		c-2.8,0-5.2-0.4-7.4-1.3c-2.2-0.9-4.1-2.1-5.5-3.6c-3.5-3.4-5.3-8.3-5.3-14.6V70.7z"/>
	<path fill="#FFFFFF" d="M401.7,114.8c-3.6,0-6.8-0.4-9.6-1.3c-2.8-0.9-5.2-2.1-7.3-3.5c-2.1-1.5-3.8-3.1-5.2-5
		c-1.4-1.9-2.5-3.8-3.2-5.8l13.1-5.6c1.3,2.8,3,4.9,5.1,6.3c2.1,1.4,4.5,2.1,7.1,2.1c2.7,0,4.8-0.5,6.4-1.5c1.6-1,2.4-2.1,2.4-3.5
		c0-1.5-0.7-2.7-2-3.6c-1.3-0.9-3.6-1.8-6.8-2.5l-7.7-1.7c-1.7-0.4-3.5-1-5.3-1.8c-1.8-0.8-3.5-1.9-5-3.1c-1.5-1.3-2.7-2.8-3.7-4.6
		c-1-1.8-1.5-3.9-1.5-6.3c0-2.7,0.6-5.1,1.7-7.2c1.2-2.1,2.7-3.9,4.8-5.3c2-1.5,4.4-2.6,7.1-3.4c2.7-0.8,5.7-1.2,8.8-1.2
		c5.2,0,9.9,1,14,3.1c4.1,2.1,7.1,5.3,9.1,9.8l-12.7,5.2c-1-2.2-2.6-3.7-4.6-4.7c-2-1-4-1.5-6-1.5c-2.1,0-3.9,0.4-5.5,1.3
		c-1.6,0.9-2.4,2-2.4,3.3c0,1.3,0.7,2.3,2,3c1.3,0.7,3.1,1.4,5.3,2l8.4,2c5.6,1.3,9.8,3.5,12.5,6.4c2.7,3,4.1,6.4,4.1,10.5
		c0,2.4-0.6,4.7-1.7,6.8c-1.1,2.2-2.7,4.1-4.8,5.8c-2.1,1.7-4.5,3-7.4,4C408.4,114.3,405.2,114.8,401.7,114.8z"/>
</g>
</svg>
