<?xml version="1.0" encoding="utf-8"?>
<!-- Generator: Adobe Illustrator 24.1.2, SVG Export Plug-In . SVG Version: 6.00 Build 0)  -->
<svg version="1.0" id="Capa_1" xmlns="http://www.w3.org/2000/svg" xmlns:xlink="http://www.w3.org/1999/xlink" x="0px" y="0px"
	 width="285px" height="215.9px" viewBox="0 0 285 215.9" enable-background="new 0 0 285 215.9" xml:space="preserve">
<circle fill="#FFFFFF" cx="142.5" cy="8.2" r="8.2"/>
<line fill="none" x1="0" y1="44.7" x2="285" y2="44.7"/>
<rect y="41.7" fill="#FFFFFF" width="285" height="6"/>
<g>
	<line fill="none" x1="0" y1="166.5" x2="285" y2="166.5"/>
	<rect y="163.5" fill="#FFFFFF" width="285" height="6"/>
	<circle fill="#FFFFFF" cx="142.5" cy="207.7" r="8.2"/>
</g>
<g>
	<path fill="#FFFFFF" d="M50,130.3h-7.1l18.9-50.1H69l18.9,50.1h-7.1L76,116.7H54.9L50,130.3z M65.2,88.1L57,110.7h16.7l-8.2-22.6
		H65.2z"/>
	<path fill="#FFFFFF" d="M107.3,131.4c-5.1,0-9.3-1.7-12.7-5.2c-3.3-3.5-5-7.9-5-13.1c0-5.3,1.7-9.6,5-13.1
		c3.4-3.5,7.6-5.2,12.7-5.2c3.5,0,6.6,0.9,9.2,2.6c2.6,1.8,4.6,4.2,5.9,7.2l-5.9,2.4c-1.8-4.3-5-6.4-9.6-6.4c-2.9,0-5.5,1.2-7.6,3.6
		c-2.1,2.4-3.1,5.3-3.1,8.8s1.1,6.4,3.1,8.8c2.1,2.4,4.7,3.6,7.6,3.6c4.7,0,8-2.1,9.9-6.4l5.7,2.5c-1.3,3.1-3.2,5.5-5.9,7.2
		C114,130.5,110.9,131.4,107.3,131.4z"/>
	<path fill="#FFFFFF" d="M141.4,130.9c-2.8,0-5.1-0.9-7-2.6c-1.8-1.7-2.8-4.1-2.8-7.2v-19.2h-6V96h6V85.5h6.4V96h8.4v5.9H138V119
		c0,2.3,0.4,3.8,1.3,4.7c0.9,0.8,1.9,1.2,3,1.2c0.5,0,1-0.1,1.5-0.2s0.9-0.3,1.4-0.5l2,5.7C145.6,130.6,143.6,130.9,141.4,130.9z"/>
	<path fill="#FFFFFF" d="M161.3,84.2c0,1.3-0.4,2.3-1.3,3.2c-0.9,0.9-2,1.3-3.2,1.3s-2.3-0.4-3.2-1.3c-0.9-0.9-1.3-2-1.3-3.2
		c0-1.3,0.4-2.3,1.3-3.2c0.9-0.9,2-1.3,3.2-1.3s2.3,0.4,3.2,1.3C160.8,81.8,161.3,82.9,161.3,84.2z M159.9,96v34.3h-6.4V96H159.9z"
		/>
	<path fill="#FFFFFF" d="M166,113.2c0-5.3,1.7-9.6,5-13.1c3.4-3.5,7.6-5.2,12.7-5.2s9.3,1.7,12.6,5.2c3.4,3.5,5,7.8,5,13.1
		c0,5.3-1.7,9.7-5,13.1c-3.3,3.5-7.5,5.2-12.6,5.2s-9.3-1.7-12.7-5.2C167.7,122.8,166,118.4,166,113.2z M172.5,113.2
		c0,3.7,1.1,6.7,3.2,9c2.1,2.3,4.8,3.4,8,3.4s5.8-1.1,8-3.4c2.1-2.3,3.2-5.3,3.2-9c0-3.6-1.1-6.6-3.2-8.9c-2.2-2.3-4.9-3.5-8-3.5
		s-5.8,1.2-8,3.5C173.6,106.5,172.5,109.5,172.5,113.2z"/>
	<path fill="#FFFFFF" d="M206.5,96h6.2v4.8h0.3c1-1.7,2.5-3.1,4.5-4.2c2-1.1,4.1-1.7,6.3-1.7c4.2,0,7.4,1.2,9.7,3.6
		c2.3,2.4,3.4,5.8,3.4,10.3v21.6h-6.4v-21.1c-0.1-5.6-3-8.4-8.5-8.4c-2.6,0-4.7,1-6.4,3.1c-1.7,2.1-2.6,4.6-2.6,7.5v19h-6.4V96z"/>
</g>
</svg>
