<?xml version="1.0" encoding="utf-8"?>
<!-- Generator: Adobe Illustrator 24.1.2, SVG Export Plug-In . SVG Version: 6.00 Build 0)  -->
<svg version="1.0" id="Capa_1" xmlns="http://www.w3.org/2000/svg" xmlns:xlink="http://www.w3.org/1999/xlink" x="0px" y="0px"
	 width="285px" height="281.6px" viewBox="0 0 285 281.6" enable-background="new 0 0 285 281.6" xml:space="preserve">
<circle fill="#FFFFFF" cx="142.5" cy="8.2" r="8.2"/>
<line fill="none" x1="0" y1="44.7" x2="285" y2="44.7"/>
<rect y="41.7" fill="#FFFFFF" width="285" height="6"/>
<g>
	<line fill="none" x1="0" y1="232.2" x2="285" y2="232.2"/>
	<rect y="229.2" fill="#FFFFFF" width="285" height="6"/>
	<circle fill="#FFFFFF" cx="142.5" cy="273.4" r="8.2"/>
	<g>
	</g>
</g>
<g>
	<path fill="#FFFFFF" d="M104.1,124.3h-7.3l19.4-51.6h7.5l19.4,51.6h-7.3l-5-14h-21.7L104.1,124.3z M119.7,80.9l-8.4,23.3h17.1
		L120,80.9H119.7z"/>
	<path fill="#FFFFFF" d="M154.6,72.8v51.6H148V72.8H154.6z"/>
	<path fill="#FFFFFF" d="M169.3,72.8v51.6h-6.6V72.8H169.3z"/>
	<path fill="#FFFFFF" d="M56.7,213c-2,0-3.8-0.3-5.5-0.8c-1.7-0.5-3.3-1.2-4.7-2.1c-1.4-0.9-2.6-2-3.6-3.2c-1-1.2-1.8-2.6-2.3-4.2
		l6.3-2.6c0.7,2.1,2,3.7,3.7,5c1.8,1.2,3.8,1.9,6.2,1.9c3.6,0,6.4-1.1,8.4-3.2s3-5.1,3-8.9v-3.4h-0.3c-1.2,1.9-2.9,3.3-5.1,4.4
		c-2.1,1.1-4.5,1.6-6.9,1.6c-4.6,0-8.6-1.8-11.9-5.4c-3.3-3.7-4.9-8.2-4.9-13.4c0-5.2,1.6-9.7,4.9-13.3c3.3-3.6,7.3-5.5,11.9-5.5
		c2.5,0,4.8,0.5,6.9,1.6c2.1,1.1,3.8,2.6,5.1,4.4h0.3V161h6.3v33.8c0,5.7-1.6,10.1-4.8,13.3C66.4,211.4,62.1,213,56.7,213z
		 M56.9,191.4c3.3,0,5.9-1.2,8-3.5c2.2-2.4,3.2-5.4,3.2-9.2c0-3.7-1.1-6.7-3.2-9.1c-2.1-2.4-4.8-3.6-8-3.6c-3.2,0-5.8,1.2-8,3.6
		c-2.2,2.4-3.2,5.4-3.2,9.1c0,3.7,1.1,6.8,3.2,9.1C51.1,190.2,53.8,191.4,56.9,191.4z"/>
	<path fill="#FFFFFF" d="M95.6,159.9c4.9,0,8.8,1.3,11.6,3.9c2.8,2.6,4.2,6.2,4.2,10.8v21.7h-6.3v-4.9h-0.3c-2.7,4-6.4,6-10.9,6
		c-3.9,0-7.1-1.2-9.8-3.5c-2.6-2.3-3.9-5.2-3.9-8.6c0-3.6,1.4-6.6,4.1-8.7c2.8-2.2,6.4-3.2,11.1-3.2c3.9,0,7.2,0.7,9.7,2.2v-1.5
		c0-2.3-0.9-4.3-2.7-5.9c-1.8-1.6-4-2.4-6.4-2.4c-3.7,0-6.6,1.6-8.8,4.7l-5.8-3.7C84.6,162.2,89.3,159.9,95.6,159.9z M87,185.5
		c0,1.7,0.7,3.2,2.2,4.3c1.5,1.2,3.2,1.7,5.1,1.7c2.8,0,5.3-1,7.5-3.1c2.2-2.1,3.3-4.5,3.3-7.3c-2.1-1.6-4.9-2.4-8.6-2.4
		c-2.7,0-4.9,0.6-6.7,1.9C87.9,182,87,183.6,87,185.5z"/>
	<path fill="#FFFFFF" d="M125.5,196.3h-6.6V161h6.3v4.9h0.3c1-1.7,2.6-3.2,4.6-4.3c2.1-1.2,4.2-1.7,6.2-1.7c2.6,0,4.9,0.6,6.8,1.8
		c2,1.2,3.4,2.9,4.3,5c2.9-4.5,7-6.8,12.2-6.8c4.1,0,7.2,1.2,9.4,3.7c2.2,2.5,3.3,6,3.3,10.7v22h-6.6v-21c0-3.3-0.6-5.7-1.8-7.2
		c-1.2-1.5-3.2-2.2-6-2.2c-2.5,0-4.7,1.1-6.4,3.2c-1.7,2.2-2.6,4.7-2.6,7.6v19.5h-6.6v-21c0-3.3-0.6-5.7-1.8-7.2
		c-1.2-1.5-3.2-2.2-6-2.2c-2.5,0-4.7,1.1-6.4,3.2s-2.6,4.7-2.6,7.6V196.3z"/>
	<path fill="#FFFFFF" d="M196.1,197.5c-5.2,0-9.5-1.8-12.8-5.3c-3.4-3.6-5-8-5-13.5c0-5.4,1.6-9.9,4.9-13.4
		c3.3-3.6,7.4-5.4,12.5-5.4c5.2,0,9.4,1.7,12.5,5.1c3.1,3.4,4.6,8.1,4.6,14.2l-0.1,0.7H185c0.1,3.5,1.2,6.2,3.5,8.4
		c2.2,2.1,4.8,3.2,7.9,3.2c4.2,0,7.5-2.1,9.9-6.3l5.9,2.9c-1.6,3-3.8,5.3-6.6,7C202.8,196.6,199.7,197.5,196.1,197.5z M185.5,174.4
		h20.2c-0.2-2.4-1.2-4.5-3-6.1c-1.8-1.6-4.2-2.4-7.2-2.4c-2.5,0-4.6,0.8-6.4,2.3C187.3,169.8,186.1,171.8,185.5,174.4z"/>
	<path fill="#FFFFFF" d="M246.2,186.5c0,3.1-1.3,5.7-4,7.8c-2.7,2.1-6.1,3.2-10.2,3.2c-3.6,0-6.7-0.9-9.4-2.8
		c-2.7-1.8-4.6-4.3-5.8-7.3l5.9-2.5c0.9,2.1,2.1,3.8,3.8,4.9c1.7,1.2,3.5,1.8,5.4,1.8c2.1,0,3.9-0.5,5.3-1.4c1.4-0.9,2.1-2,2.1-3.2
		c0-2.3-1.7-3.9-5.2-5l-6-1.5c-6.9-1.7-10.3-5-10.3-9.9c0-3.2,1.3-5.8,3.9-7.7c2.6-1.9,6-2.9,10-2.9c3.1,0,5.9,0.7,8.5,2.2
		c2.5,1.5,4.3,3.5,5.3,6l-5.9,2.4c-0.7-1.5-1.8-2.7-3.3-3.5c-1.5-0.8-3.2-1.3-5.1-1.3c-1.7,0-3.3,0.4-4.6,1.3
		c-1.4,0.9-2.1,1.9-2.1,3.2c0,2,1.9,3.5,5.7,4.3l5.3,1.4C242.7,177.7,246.2,181.2,246.2,186.5z"/>
</g>
<g>
</g>
</svg>
