<?xml version="1.0" encoding="utf-8"?>
<!-- Generator: Adobe Illustrator 24.1.2, SVG Export Plug-In . SVG Version: 6.00 Build 0)  -->
<svg version="1.0" id="Capa_1" xmlns="http://www.w3.org/2000/svg" xmlns:xlink="http://www.w3.org/1999/xlink" x="0px" y="0px"
	 width="285px" height="281.6px" viewBox="0 0 285 281.6" enable-background="new 0 0 285 281.6" xml:space="preserve">
<circle fill="#FFFFFF" cx="142.5" cy="8.2" r="8.2"/>
<line fill="none" x1="0" y1="44.7" x2="285" y2="44.7"/>
<rect y="41.7" fill="#FFFFFF" width="285" height="6"/>
<g>
	<line fill="none" x1="0" y1="232.2" x2="285" y2="232.2"/>
	<rect y="229.2" fill="#FFFFFF" width="285" height="6"/>
	<circle fill="#FFFFFF" cx="142.5" cy="273.4" r="8.2"/>
	<g>
	</g>
</g>
<g>
	<path fill="#FFFFFF" d="M12,124.3V72.8h18.6c4.1,0,7.6,1.3,10.5,4c2.9,2.6,4.4,6,4.4,10c0,5.1-2.3,8.7-7,10.7v0.3
		c2.6,0.9,4.8,2.4,6.3,4.5c1.6,2.1,2.4,4.6,2.4,7.3c0,4.2-1.5,7.7-4.6,10.5c-3,2.8-6.6,4.2-11,4.2H12z M18.6,79.1v15.8h12
		c2.4,0,4.3-0.8,5.9-2.4c1.6-1.6,2.4-3.5,2.4-5.5c0-2-0.8-3.8-2.3-5.5c-1.5-1.6-3.4-2.4-5.7-2.4H18.6z M18.6,101V118h13.3
		c2.4,0,4.4-0.8,6.1-2.5c1.6-1.7,2.4-3.7,2.4-6c0-2.3-0.8-4.2-2.5-5.9c-1.7-1.7-3.8-2.5-6.3-2.5H18.6z"/>
	<path fill="#FFFFFF" d="M69.5,125.5c-5.2,0-9.5-1.8-12.8-5.3c-3.4-3.6-5-8-5-13.5c0-5.4,1.6-9.9,4.9-13.4c3.3-3.6,7.4-5.4,12.5-5.4
		c5.2,0,9.4,1.7,12.5,5.1c3.1,3.4,4.6,8.1,4.6,14.2l-0.1,0.7H58.4c0.1,3.5,1.2,6.2,3.5,8.4c2.2,2.1,4.8,3.2,7.9,3.2
		c4.2,0,7.5-2.1,9.9-6.3l5.9,2.9c-1.6,3-3.8,5.3-6.6,7S73,125.5,69.5,125.5z M58.9,102.4h20.2c-0.2-2.4-1.2-4.5-3-6.1
		c-1.8-1.6-4.2-2.4-7.2-2.4c-2.5,0-4.6,0.8-6.4,2.3C60.6,97.8,59.4,99.8,58.9,102.4z"/>
	<path fill="#FFFFFF" d="M106,87.9c4.9,0,8.8,1.3,11.6,3.9c2.8,2.6,4.2,6.2,4.2,10.8v21.7h-6.3v-4.9h-0.3c-2.7,4-6.4,6-10.9,6
		c-3.9,0-7.1-1.2-9.8-3.5c-2.6-2.3-3.9-5.2-3.9-8.6c0-3.6,1.4-6.6,4.1-8.7c2.8-2.2,6.4-3.2,11.1-3.2c3.9,0,7.2,0.7,9.7,2.2v-1.5
		c0-2.3-0.9-4.3-2.7-5.9c-1.8-1.6-4-2.4-6.4-2.4c-3.7,0-6.6,1.6-8.8,4.7l-5.8-3.7C94.9,90.2,99.7,87.9,106,87.9z M97.4,113.5
		c0,1.7,0.7,3.2,2.2,4.3c1.5,1.2,3.2,1.7,5.1,1.7c2.8,0,5.3-1,7.5-3.1c2.2-2.1,3.3-4.5,3.3-7.3c-2.1-1.6-4.9-2.4-8.6-2.4
		c-2.7,0-4.9,0.6-6.7,1.9C98.3,110,97.4,111.6,97.4,113.5z"/>
	<path fill="#FFFFFF" d="M142.5,124.9c-2.9,0-5.3-0.9-7.2-2.7c-1.9-1.8-2.9-4.2-2.9-7.4V95.1h-6.2v-6h6.2V78.2h6.6V89h8.6v6h-8.6
		v17.6c0,2.4,0.5,3.9,1.4,4.8c0.9,0.8,1.9,1.3,3.1,1.3c0.5,0,1-0.1,1.5-0.2c0.5-0.1,1-0.3,1.4-0.5l2.1,5.9
		C146.9,124.6,144.8,124.9,142.5,124.9z"/>
	<path fill="#FFFFFF" d="M176,71.6l3.1,2l-3.6,5.5c1,0.2,1.9,0.7,2.6,1.5c0.7,0.8,1,1.8,1,3c0,1.3-0.5,2.5-1.4,3.5
		c-0.9,1-2.1,1.4-3.5,1.4c-1.4,0-2.6-0.6-3.5-1.5c-0.9-1-1.4-2.1-1.4-3.5c0-0.7,0.1-1.4,0.4-2.1c0.2-0.7,0.6-1.4,1.2-2.2L176,71.6z"
		/>
	<path fill="#FFFFFF" d="M198.1,125.5c-5.2,0-9.5-1.8-12.8-5.3c-3.4-3.6-5-8-5-13.5c0-5.4,1.6-9.9,4.9-13.4
		c3.3-3.6,7.4-5.4,12.5-5.4c5.2,0,9.4,1.7,12.5,5.1c3.1,3.4,4.6,8.1,4.6,14.2l-0.1,0.7H187c0.1,3.5,1.2,6.2,3.5,8.4
		c2.2,2.1,4.8,3.2,7.9,3.2c4.2,0,7.5-2.1,9.9-6.3l5.9,2.9c-1.6,3-3.8,5.3-6.6,7C204.9,124.6,201.7,125.5,198.1,125.5z M187.5,102.4
		h20.2c-0.2-2.4-1.2-4.5-3-6.1c-1.8-1.6-4.2-2.4-7.2-2.4c-2.5,0-4.6,0.8-6.4,2.3C189.3,97.8,188.1,99.8,187.5,102.4z"/>
	<path fill="#FFFFFF" d="M227.5,124.3h-6.6V89h6.3v4.9h0.3c1-1.7,2.6-3.2,4.6-4.3c2.1-1.2,4.2-1.7,6.2-1.7c2.6,0,4.9,0.6,6.8,1.8
		c2,1.2,3.4,2.9,4.3,5c2.9-4.5,7-6.8,12.2-6.8c4.1,0,7.2,1.2,9.4,3.7c2.2,2.5,3.3,6,3.3,10.7v22h-6.6v-21c0-3.3-0.6-5.7-1.8-7.2
		c-1.2-1.5-3.2-2.2-6-2.2c-2.5,0-4.7,1.1-6.4,3.2c-1.7,2.2-2.6,4.7-2.6,7.6v19.5h-6.6v-21c0-3.3-0.6-5.7-1.8-7.2
		c-1.2-1.5-3.2-2.2-6-2.2c-2.5,0-4.7,1.1-6.4,3.2c-1.7,2.2-2.6,4.7-2.6,7.6V124.3z"/>
	<path fill="#FFFFFF" d="M137.4,196.3h-6.3v-4.9h-0.3c-1,1.7-2.6,3.2-4.6,4.3s-4.3,1.7-6.5,1.7c-4.3,0-7.6-1.2-10-3.7
		c-2.3-2.5-3.5-6-3.5-10.5V161h6.6v21.7c0.1,5.8,3,8.6,8.7,8.6c2.6,0,4.8-1.1,6.6-3.2c1.8-2.1,2.7-4.7,2.7-7.7V161h6.6V196.3z"/>
	<path fill="#FFFFFF" d="M163.8,197.5c-2.6,0-5-0.6-7.1-1.7s-3.8-2.6-4.9-4.4h-0.3l0.3,4.9v15.6h-6.6V161h6.3v4.9h0.3
		c1.2-1.8,2.8-3.3,4.9-4.4c2.1-1.1,4.5-1.7,7.1-1.7c4.7,0,8.6,1.8,11.8,5.5c3.3,3.7,5,8.1,5,13.3c0,5.2-1.7,9.7-5,13.3
		C172.4,195.6,168.5,197.5,163.8,197.5z M162.7,191.4c3.2,0,5.8-1.2,8-3.6c2.2-2.4,3.2-5.4,3.2-9.1c0-3.7-1.1-6.7-3.2-9.1
		c-2.2-2.4-4.8-3.6-8-3.6c-3.2,0-5.9,1.2-8.1,3.6c-2.1,2.4-3.2,5.4-3.2,9.1c0,3.7,1.1,6.8,3.2,9.2
		C156.8,190.2,159.5,191.4,162.7,191.4z"/>
</g>
<g>
</g>
</svg>
