<?xml version="1.0" encoding="utf-8"?>
<!-- Generator: Adobe Illustrator 24.1.2, SVG Export Plug-In . SVG Version: 6.00 Build 0)  -->
<svg version="1.0" id="Capa_1" xmlns="http://www.w3.org/2000/svg" xmlns:xlink="http://www.w3.org/1999/xlink" x="0px" y="0px"
	 width="285px" height="215.9px" viewBox="0 0 285 215.9" enable-background="new 0 0 285 215.9" xml:space="preserve">
<circle fill="#FFFFFF" cx="142.5" cy="8.2" r="8.2"/>
<line fill="none" x1="0" y1="44.7" x2="285" y2="44.7"/>
<rect y="41.7" fill="#FFFFFF" width="285" height="6"/>
<g>
	<line fill="none" x1="0" y1="166.5" x2="285" y2="166.5"/>
	<rect y="163.5" fill="#FFFFFF" width="285" height="6"/>
	<circle fill="#FFFFFF" cx="142.5" cy="207.7" r="8.2"/>
	<g>
	</g>
</g>
<g>
	<path fill="#FFFFFF" d="M27.8,108.5v22.1h-6.6V79h30.1v6.3H27.8v16.9H49v6.2H27.8z"/>
	<path fill="#FFFFFF" d="M65.5,83.1c0,1.3-0.5,2.4-1.4,3.3c-0.9,0.9-2,1.4-3.3,1.4s-2.4-0.5-3.3-1.4c-0.9-0.9-1.4-2-1.4-3.3
		c0-1.3,0.5-2.4,1.4-3.3c0.9-0.9,2-1.4,3.3-1.4s2.4,0.5,3.3,1.4C65,80.7,65.5,81.8,65.5,83.1z M64.1,95.3v35.3h-6.6V95.3H64.1z"/>
	<path fill="#FFFFFF" d="M88,147.3c-2,0-3.8-0.3-5.5-0.8c-1.7-0.5-3.3-1.2-4.7-2.1c-1.4-0.9-2.6-2-3.6-3.2c-1-1.2-1.8-2.6-2.3-4.2
		l6.3-2.6c0.7,2.1,2,3.7,3.7,5c1.8,1.2,3.8,1.9,6.2,1.9c3.6,0,6.4-1.1,8.4-3.2s3-5.1,3-8.9v-3.4h-0.3c-1.2,1.9-2.9,3.3-5.1,4.4
		c-2.1,1.1-4.5,1.6-6.9,1.6c-4.6,0-8.6-1.8-11.9-5.4c-3.3-3.7-4.9-8.2-4.9-13.4c0-5.2,1.6-9.7,4.9-13.3c3.3-3.6,7.3-5.5,11.9-5.5
		c2.5,0,4.8,0.5,6.9,1.6c2.1,1.1,3.8,2.6,5.1,4.4h0.3v-4.9h6.3v33.8c0,5.7-1.6,10.1-4.8,13.3C97.7,145.6,93.4,147.3,88,147.3z
		 M88.3,125.7c3.3,0,5.9-1.2,8-3.5c2.2-2.4,3.2-5.4,3.2-9.2c0-3.7-1.1-6.7-3.2-9.1c-2.1-2.4-4.8-3.6-8-3.6c-3.2,0-5.8,1.2-8,3.6
		c-2.2,2.4-3.2,5.4-3.2,9.1c0,3.7,1.1,6.8,3.2,9.1C82.4,124.5,85.1,125.7,88.3,125.7z"/>
	<path fill="#FFFFFF" d="M113.9,79h6.6v16.3l-0.3,4.9h0.3c1-1.7,2.6-3.2,4.6-4.3c2.1-1.2,4.3-1.7,6.5-1.7c4.3,0,7.6,1.2,10,3.7
		c2.3,2.5,3.5,6,3.5,10.5v22.2h-6.6v-20.9c0-6.3-2.8-9.5-8.4-9.5c-2.7,0-5,1.1-6.8,3.3c-1.8,2.2-2.8,4.8-2.8,7.8v19.2h-6.6V79z"/>
	<path fill="#FFFFFF" d="M165.1,131.1c-2.9,0-5.3-0.9-7.2-2.7c-1.9-1.8-2.9-4.2-2.9-7.4v-19.7h-6.2v-6h6.2V84.5h6.6v10.8h8.6v6h-8.6
		v17.6c0,2.4,0.5,3.9,1.4,4.8c0.9,0.8,1.9,1.3,3.1,1.3c0.5,0,1-0.1,1.5-0.2c0.5-0.1,1-0.3,1.4-0.5l2.1,5.9
		C169.4,130.8,167.4,131.1,165.1,131.1z"/>
	<path fill="#FFFFFF" d="M185.5,83.1c0,1.3-0.5,2.4-1.4,3.3c-0.9,0.9-2,1.4-3.3,1.4s-2.4-0.5-3.3-1.4c-0.9-0.9-1.4-2-1.4-3.3
		c0-1.3,0.5-2.4,1.4-3.3c0.9-0.9,2-1.4,3.3-1.4s2.4,0.5,3.3,1.4C185.1,80.7,185.5,81.8,185.5,83.1z M184.2,95.3v35.3h-6.6V95.3
		H184.2z"/>
	<path fill="#FFFFFF" d="M192.8,95.3h6.3v4.9h0.3c1-1.7,2.6-3.2,4.6-4.3c2.1-1.2,4.3-1.7,6.5-1.7c4.3,0,7.6,1.2,10,3.7
		c2.3,2.5,3.5,6,3.5,10.5v22.2h-6.6v-21.7c-0.1-5.8-3-8.6-8.7-8.6c-2.6,0-4.8,1.1-6.6,3.2c-1.8,2.1-2.7,4.7-2.7,7.7v19.5h-6.6V95.3z
		"/>
	<path fill="#FFFFFF" d="M247.1,147.3c-2,0-3.8-0.3-5.5-0.8c-1.7-0.5-3.3-1.2-4.7-2.1c-1.4-0.9-2.6-2-3.6-3.2
		c-1-1.2-1.8-2.6-2.3-4.2l6.3-2.6c0.7,2.1,2,3.7,3.7,5c1.8,1.2,3.8,1.9,6.2,1.9c3.6,0,6.4-1.1,8.4-3.2c2-2.2,3-5.1,3-8.9v-3.4h-0.3
		c-1.2,1.9-2.9,3.3-5.1,4.4c-2.1,1.1-4.5,1.6-6.9,1.6c-4.6,0-8.6-1.8-11.9-5.4c-3.3-3.7-4.9-8.2-4.9-13.4c0-5.2,1.6-9.7,4.9-13.3
		c3.3-3.6,7.3-5.5,11.9-5.5c2.5,0,4.8,0.5,6.9,1.6c2.1,1.1,3.8,2.6,5.1,4.4h0.3v-4.9h6.3v33.8c0,5.7-1.6,10.1-4.8,13.3
		C256.8,145.6,252.5,147.3,247.1,147.3z M247.3,125.7c3.3,0,5.9-1.2,8-3.5c2.2-2.4,3.2-5.4,3.2-9.2c0-3.7-1.1-6.7-3.2-9.1
		c-2.1-2.4-4.8-3.6-8-3.6c-3.2,0-5.8,1.2-8,3.6c-2.2,2.4-3.2,5.4-3.2,9.1c0,3.7,1.1,6.8,3.2,9.1
		C241.5,124.5,244.1,125.7,247.3,125.7z"/>
</g>
</svg>
