<?xml version="1.0" encoding="utf-8"?>
<!-- Generator: Adobe Illustrator 24.1.2, SVG Export Plug-In . SVG Version: 6.00 Build 0)  -->
<svg version="1.0" id="Capa_1" xmlns="http://www.w3.org/2000/svg" xmlns:xlink="http://www.w3.org/1999/xlink" x="0px" y="0px"
	 width="285px" height="215.9px" viewBox="0 0 285 215.9" enable-background="new 0 0 285 215.9" xml:space="preserve">
<circle fill="#FFFFFF" cx="142.5" cy="8.2" r="8.2"/>
<line fill="none" x1="0" y1="44.7" x2="285" y2="44.7"/>
<rect y="41.7" fill="#FFFFFF" width="285" height="6"/>
<g>
	<line fill="none" x1="0" y1="166.5" x2="285" y2="166.5"/>
	<rect y="163.5" fill="#FFFFFF" width="285" height="6"/>
	<circle fill="#FFFFFF" cx="142.5" cy="207.7" r="8.2"/>
</g>
<g>
	<path fill="#FFFFFF" d="M73.2,129.1h-6.6V77.5h6.6l17.9,31.4h0.3l17.9-31.4h6.6v51.6h-6.6V98.5l0.3-8.6h-0.3l-16.1,28.3h-3.9
		L73.2,89.9h-0.3l0.3,8.6V129.1z"/>
	<path fill="#FFFFFF" d="M137.5,92.7c4.9,0,8.8,1.3,11.6,3.9c2.8,2.6,4.2,6.2,4.2,10.8v21.7H147v-4.9h-0.3c-2.7,4-6.4,6-10.9,6
		c-3.9,0-7.1-1.2-9.8-3.5c-2.6-2.3-3.9-5.2-3.9-8.6c0-3.6,1.4-6.6,4.1-8.7c2.8-2.2,6.4-3.2,11.1-3.2c3.9,0,7.2,0.7,9.7,2.2v-1.5
		c0-2.3-0.9-4.3-2.7-5.9c-1.8-1.6-4-2.4-6.4-2.4c-3.7,0-6.6,1.6-8.8,4.7l-5.8-3.7C126.5,95,131.2,92.7,137.5,92.7z M129,118.3
		c0,1.7,0.7,3.2,2.2,4.3c1.5,1.2,3.2,1.7,5.1,1.7c2.8,0,5.3-1,7.5-3.1c2.2-2.1,3.3-4.5,3.3-7.3c-2.1-1.6-4.9-2.4-8.6-2.4
		c-2.7,0-4.9,0.6-6.7,1.9C129.9,114.8,129,116.4,129,118.3z"/>
	<path fill="#FFFFFF" d="M188.4,129.1h-28.5v-5.8l20.1-23.5h-19.5v-6h27.6v5.8L168,123.1h20.4V129.1z"/>
	<path fill="#FFFFFF" d="M209.8,130.3c-5.2,0-9.5-1.8-12.8-5.3c-3.4-3.6-5-8-5-13.5c0-5.4,1.6-9.9,4.9-13.4
		c3.3-3.6,7.4-5.4,12.5-5.4c5.2,0,9.4,1.7,12.5,5.1c3.1,3.4,4.6,8.1,4.6,14.2l-0.1,0.7h-27.7c0.1,3.5,1.2,6.2,3.5,8.4
		c2.2,2.1,4.8,3.2,7.9,3.2c4.2,0,7.5-2.1,9.9-6.3l5.9,2.9c-1.6,3-3.8,5.3-6.6,7C216.5,129.4,213.4,130.3,209.8,130.3z M199.2,107.2
		h20.2c-0.2-2.4-1.2-4.5-3-6.1c-1.8-1.6-4.2-2.4-7.2-2.4c-2.5,0-4.6,0.8-6.4,2.3C201,102.6,199.8,104.6,199.2,107.2z"/>
</g>
</svg>
