<?xml version="1.0" encoding="utf-8"?>
<!-- Generator: Adobe Illustrator 24.1.0, SVG Export Plug-In . SVG Version: 6.00 Build 0)  -->
<svg version="1.0" id="Capa_1" xmlns="http://www.w3.org/2000/svg" xmlns:xlink="http://www.w3.org/1999/xlink" x="0px" y="0px"
	 width="285px" height="215.9px" viewBox="0 0 285 215.9" enable-background="new 0 0 285 215.9" xml:space="preserve">
<circle fill="#FFFFFF" cx="142.5" cy="8.2" r="8.2"/>
<line fill="none" x1="0" y1="44.7" x2="285" y2="44.7"/>
<rect y="41.7" fill="#FFFFFF" width="285" height="6"/>
<g>
	<line fill="none" x1="0" y1="166.5" x2="285" y2="166.5"/>
	<rect y="163.5" fill="#FFFFFF" width="285" height="6"/>
	<circle fill="#FFFFFF" cx="142.5" cy="207.7" r="8.2"/>
</g>
<g>
	<path fill="#FFFFFF" d="M22.8,108.3v20.9h-6.6V77.6h17.6c4.5,0,8.3,1.5,11.4,4.5c3.2,3,4.8,6.6,4.8,10.9c0,4.4-1.6,8-4.8,10.9
		c-3.1,2.9-6.9,4.4-11.4,4.4H22.8z M22.8,83.9v18h11.1c2.6,0,4.8-0.9,6.6-2.7c1.8-1.8,2.7-3.9,2.7-6.3c0-2.4-0.9-4.5-2.7-6.3
		c-1.7-1.8-3.9-2.7-6.6-2.7H22.8z"/>
	<path fill="#FFFFFF" d="M62.6,77.6v51.6H56V77.6H62.6z"/>
	<path fill="#FFFFFF" d="M83.7,92.7c4.9,0,8.8,1.3,11.6,3.9c2.8,2.6,4.2,6.2,4.2,10.8v21.7h-6.3v-4.9h-0.3c-2.7,4-6.4,6-10.9,6
		c-3.9,0-7.1-1.2-9.8-3.5c-2.6-2.3-3.9-5.2-3.9-8.6c0-3.6,1.4-6.6,4.1-8.7c2.8-2.2,6.4-3.2,11.1-3.2c3.9,0,7.2,0.7,9.7,2.2v-1.5
		c0-2.3-0.9-4.3-2.7-5.9c-1.8-1.6-4-2.4-6.4-2.4c-3.7,0-6.6,1.6-8.8,4.7l-5.8-3.7C72.6,95,77.4,92.7,83.7,92.7z M75.1,118.3
		c0,1.7,0.7,3.2,2.2,4.3c1.5,1.2,3.2,1.7,5.1,1.7c2.8,0,5.3-1,7.5-3.1c2.2-2.1,3.3-4.5,3.3-7.3c-2.1-1.6-4.9-2.4-8.6-2.4
		c-2.7,0-4.9,0.6-6.7,1.9C76,114.8,75.1,116.4,75.1,118.3z"/>
	<path fill="#FFFFFF" d="M120.2,129.7c-2.8,0-5.2-0.9-7.1-2.7c-1.9-1.8-2.9-4.2-3-7.4V99.9H104v-6h6.2V83.1h6.6v10.8h15.8v-5.1
		c0-3.5,1.1-6.3,3.3-8.5c2.2-2.2,5.1-3.2,8.6-3.2c2.4,0,4.4,0.4,5.9,1.2l-1.8,5.8c-1.2-0.6-2.4-0.9-3.9-0.9c-1.6,0-3,0.6-4,1.7
		c-1,1.1-1.5,2.6-1.5,4.5v4.5h9.2v6h-9.2v29.2h-6.6V99.9h-15.8v17.8c0,2.1,0.4,3.6,1.3,4.5c0.8,0.9,1.8,1.4,3,1.4
		c1.1,0,2.2-0.2,3.2-0.6l2.1,5.9C124.5,129.4,122.5,129.7,120.2,129.7z"/>
	<path fill="#FFFFFF" d="M150.6,111.5c0-5.4,1.7-9.9,5.1-13.5c3.5-3.6,7.8-5.3,13-5.3c5.2,0,9.6,1.8,13,5.3c3.5,3.6,5.2,8,5.2,13.5
		c0,5.5-1.7,10-5.2,13.5c-3.4,3.6-7.7,5.3-13,5.3c-5.2,0-9.6-1.8-13-5.3C152.3,121.4,150.6,116.9,150.6,111.5z M157.3,111.5
		c0,3.8,1.1,6.9,3.3,9.2c2.2,2.4,4.9,3.5,8.2,3.5c3.3,0,6-1.2,8.2-3.5c2.2-2.4,3.3-5.4,3.3-9.2c0-3.7-1.1-6.8-3.3-9.1
		c-2.3-2.4-5-3.6-8.2-3.6s-6,1.2-8.2,3.6C158.4,104.7,157.3,107.8,157.3,111.5z"/>
	<path fill="#FFFFFF" d="M198.9,129.1h-6.6V93.9h6.3v5.8h0.3c0.7-1.9,2.1-3.5,4.1-4.8c2.1-1.3,4.1-2,6.2-2c1.9,0,3.6,0.3,4.9,0.9
		l-2,6.4c-0.8-0.3-2.1-0.5-3.9-0.5c-2.5,0-4.7,1-6.5,3c-1.8,2-2.8,4.4-2.8,7.1V129.1z"/>
	<path fill="#FFFFFF" d="M225,129.1h-6.6V93.9h6.3v4.9h0.3c1-1.7,2.6-3.2,4.6-4.3c2.1-1.2,4.2-1.7,6.2-1.7c2.6,0,4.9,0.6,6.8,1.8
		c2,1.2,3.4,2.9,4.3,5c2.9-4.5,7-6.8,12.2-6.8c4.1,0,7.2,1.2,9.4,3.7c2.2,2.5,3.3,6,3.3,10.7v22h-6.6v-21c0-3.3-0.6-5.7-1.8-7.2
		c-1.2-1.5-3.2-2.2-6-2.2c-2.5,0-4.7,1.1-6.4,3.2c-1.7,2.2-2.6,4.7-2.6,7.6v19.5h-6.6v-21c0-3.3-0.6-5.7-1.8-7.2
		c-1.2-1.5-3.2-2.2-6-2.2c-2.5,0-4.7,1.1-6.4,3.2c-1.7,2.2-2.6,4.7-2.6,7.6V129.1z"/>
</g>
</svg>
