<?xml version="1.0" encoding="utf-8"?>
<!-- Generator: Adobe Illustrator 24.1.2, SVG Export Plug-In . SVG Version: 6.00 Build 0)  -->
<svg version="1.0" id="Capa_1" xmlns="http://www.w3.org/2000/svg" xmlns:xlink="http://www.w3.org/1999/xlink" x="0px" y="0px"
	 width="285px" height="215.9px" viewBox="0 0 285 215.9" enable-background="new 0 0 285 215.9" xml:space="preserve">
<circle fill="#FFFFFF" cx="142.5" cy="8.2" r="8.2"/>
<line fill="none" x1="0" y1="44.7" x2="285" y2="44.7"/>
<rect y="41.7" fill="#FFFFFF" width="285" height="6"/>
<g>
	<line fill="none" x1="0" y1="166.5" x2="285" y2="166.5"/>
	<rect y="163.5" fill="#FFFFFF" width="285" height="6"/>
	<circle fill="#FFFFFF" cx="142.5" cy="207.7" r="8.2"/>
	<g>
		<path fill="#FFFFFF" d="M57.1,109.7v20.9h-6.6V79h17.6c4.5,0,8.3,1.5,11.4,4.5c3.2,3,4.8,6.6,4.8,10.9c0,4.4-1.6,8-4.8,10.9
			c-3.1,2.9-6.9,4.4-11.4,4.4H57.1z M57.1,85.3v18h11.1c2.6,0,4.8-0.9,6.6-2.7c1.8-1.8,2.7-3.9,2.7-6.3c0-2.4-0.9-4.5-2.7-6.3
			c-1.7-1.8-3.9-2.7-6.6-2.7H57.1z"/>
		<path fill="#FFFFFF" d="M120.2,130.6h-6.3v-4.9h-0.3c-1,1.7-2.6,3.2-4.6,4.3s-4.3,1.7-6.5,1.7c-4.3,0-7.6-1.2-10-3.7
			c-2.3-2.5-3.5-6-3.5-10.5V95.3h6.6V117c0.1,5.8,3,8.6,8.7,8.6c2.6,0,4.8-1.1,6.6-3.2c1.8-2.1,2.7-4.7,2.7-7.7V95.3h6.6V130.6z"/>
		<path fill="#FFFFFF" d="M156.1,130.6h-28.5v-5.8l20.1-23.5h-19.5v-6h27.6v5.8l-20.1,23.5h20.4V130.6z"/>
		<path fill="#FFFFFF" d="M189.2,130.6h-28.5v-5.8l20.1-23.5h-19.5v-6h27.6v5.8l-20.1,23.5h20.4V130.6z"/>
		<path fill="#FFFFFF" d="M202.9,79v51.6h-6.6V79H202.9z"/>
		<path fill="#FFFFFF" d="M226.5,131.7c-5.2,0-9.5-1.8-12.8-5.3c-3.4-3.6-5-8-5-13.5c0-5.4,1.6-9.9,4.9-13.4
			c3.3-3.6,7.4-5.4,12.5-5.4c5.2,0,9.4,1.7,12.5,5.1c3.1,3.4,4.6,8.1,4.6,14.2l-0.1,0.7h-27.7c0.1,3.5,1.2,6.2,3.5,8.4
			c2.2,2.1,4.8,3.2,7.9,3.2c4.2,0,7.5-2.1,9.9-6.3l5.9,2.9c-1.6,3-3.8,5.3-6.6,7C233.2,130.9,230,131.7,226.5,131.7z M215.9,108.7
			h20.2c-0.2-2.4-1.2-4.5-3-6.1c-1.8-1.6-4.2-2.4-7.2-2.4c-2.5,0-4.6,0.8-6.4,2.3C217.6,104,216.4,106.1,215.9,108.7z"/>
	</g>
	<g>
	</g>
</g>
</svg>
