<?xml version="1.0" encoding="utf-8"?>
<!-- Generator: Adobe Illustrator 24.1.0, SVG Export Plug-In . SVG Version: 6.00 Build 0)  -->
<svg version="1.0" id="Capa_1" xmlns="http://www.w3.org/2000/svg" xmlns:xlink="http://www.w3.org/1999/xlink" x="0px" y="0px"
	 width="285px" height="215.9px" viewBox="0 0 285 215.9" enable-background="new 0 0 285 215.9" xml:space="preserve">
<circle fill="#FFFFFF" cx="142.5" cy="8.2" r="8.2"/>
<line fill="none" x1="0" y1="44.7" x2="285" y2="44.7"/>
<rect y="41.7" fill="#FFFFFF" width="285" height="6"/>
<g>
	<line fill="none" x1="0" y1="166.5" x2="285" y2="166.5"/>
	<rect y="163.5" fill="#FFFFFF" width="285" height="6"/>
	<circle fill="#FFFFFF" cx="142.5" cy="207.7" r="8.2"/>
</g>
<g>
	<path fill="#FFFFFF" d="M48.8,129.1h-6.6V77.6h17.6c4.5,0,8.3,1.5,11.4,4.4c3.1,3,4.7,6.6,4.7,10.9c0,3.6-1.2,6.7-3.5,9.5
		c-2.3,2.8-5.3,4.5-8.8,5.3l-0.1,0.2l14.5,21v0.3H70l-13.9-20.9h-7.3V129.1z M48.8,83.9v18.1h10.7c2.7,0,5-0.9,6.8-2.6
		c1.9-1.8,2.8-3.9,2.8-6.5c0-2.4-0.9-4.5-2.6-6.3c-1.8-1.8-3.9-2.7-6.6-2.7H48.8z"/>
	<path fill="#FFFFFF" d="M95.7,92.7c4.9,0,8.8,1.3,11.6,3.9c2.8,2.6,4.2,6.2,4.2,10.8v21.7h-6.3v-4.9h-0.3c-2.7,4-6.4,6-10.9,6
		c-3.9,0-7.1-1.2-9.8-3.5c-2.6-2.3-3.9-5.2-3.9-8.6c0-3.6,1.4-6.6,4.1-8.7c2.8-2.2,6.4-3.2,11.1-3.2c3.9,0,7.2,0.7,9.7,2.2v-1.5
		c0-2.3-0.9-4.3-2.7-5.9c-1.8-1.6-4-2.4-6.4-2.4c-3.7,0-6.6,1.6-8.8,4.7l-5.8-3.7C84.6,95,89.4,92.7,95.7,92.7z M87.1,118.3
		c0,1.7,0.7,3.2,2.2,4.3c1.5,1.2,3.2,1.7,5.1,1.7c2.8,0,5.3-1,7.5-3.1c2.2-2.1,3.3-4.5,3.3-7.3c-2.1-1.6-4.9-2.4-8.6-2.4
		c-2.7,0-4.9,0.6-6.7,1.9C88,114.8,87.1,116.4,87.1,118.3z"/>
	<path fill="#FFFFFF" d="M134.8,130.3c-5.2,0-9.6-1.8-13-5.3c-3.4-3.6-5.1-8.1-5.1-13.5c0-5.4,1.7-9.9,5.1-13.5
		c3.5-3.6,7.8-5.3,13-5.3c3.6,0,6.7,0.9,9.4,2.7c2.7,1.8,4.7,4.3,6,7.5l-6,2.5c-1.9-4.4-5.2-6.6-9.9-6.6c-3,0-5.6,1.2-7.8,3.7
		c-2.2,2.4-3.2,5.5-3.2,9.1c0,3.6,1.1,6.6,3.2,9.1c2.2,2.4,4.8,3.7,7.8,3.7c4.8,0,8.3-2.2,10.2-6.6l5.9,2.5
		c-1.3,3.2-3.3,5.7-6.1,7.5C141.6,129.4,138.4,130.3,134.8,130.3z"/>
	<path fill="#FFFFFF" d="M164.8,81.7c0,1.3-0.5,2.4-1.4,3.3c-0.9,0.9-2,1.4-3.3,1.4s-2.4-0.5-3.3-1.4c-0.9-0.9-1.4-2-1.4-3.3
		c0-1.3,0.5-2.4,1.4-3.3c0.9-0.9,2-1.4,3.3-1.4s2.4,0.5,3.3,1.4C164.3,79.3,164.8,80.4,164.8,81.7z M163.4,93.9v35.3h-6.6V93.9
		H163.4z"/>
	<path fill="#FFFFFF" d="M172.1,93.9h6.3v4.9h0.3c1-1.7,2.6-3.2,4.6-4.3c2.1-1.2,4.3-1.7,6.5-1.7c4.3,0,7.6,1.2,10,3.7
		c2.3,2.5,3.5,6,3.5,10.5v22.2h-6.6v-21.7c-0.1-5.8-3-8.6-8.7-8.6c-2.6,0-4.8,1.1-6.6,3.2c-1.8,2.1-2.7,4.7-2.7,7.7v19.5h-6.6V93.9z
		"/>
	<path fill="#FFFFFF" d="M226.4,145.8c-2,0-3.8-0.3-5.5-0.8c-1.7-0.5-3.3-1.2-4.7-2.1c-1.4-0.9-2.6-2-3.6-3.2
		c-1-1.2-1.8-2.6-2.3-4.2l6.3-2.6c0.7,2.1,2,3.7,3.7,5c1.8,1.2,3.8,1.9,6.2,1.9c3.6,0,6.4-1.1,8.4-3.2c2-2.2,3-5.1,3-8.9v-3.4h-0.3
		c-1.2,1.9-2.9,3.3-5.1,4.4c-2.1,1.1-4.5,1.6-6.9,1.6c-4.6,0-8.6-1.8-11.9-5.4c-3.3-3.7-4.9-8.2-4.9-13.4c0-5.2,1.6-9.7,4.9-13.3
		c3.3-3.6,7.3-5.5,11.9-5.5c2.5,0,4.8,0.5,6.9,1.6c2.1,1.1,3.8,2.6,5.1,4.4h0.3v-4.9h6.3v33.8c0,5.7-1.6,10.1-4.8,13.3
		C236.1,144.2,231.7,145.8,226.4,145.8z M226.6,124.2c3.3,0,5.9-1.2,8-3.5c2.2-2.4,3.2-5.4,3.2-9.2c0-3.7-1.1-6.7-3.2-9.1
		c-2.1-2.4-4.8-3.6-8-3.6c-3.2,0-5.8,1.2-8,3.6c-2.2,2.4-3.2,5.4-3.2,9.1c0,3.7,1.1,6.8,3.2,9.1C220.7,123,223.4,124.2,226.6,124.2z
		"/>
</g>
</svg>
