<?xml version="1.0" encoding="utf-8"?>
<!-- Generator: Adobe Illustrator 24.1.0, SVG Export Plug-In . SVG Version: 6.00 Build 0)  -->
<svg version="1.0" id="Capa_1" xmlns="http://www.w3.org/2000/svg" xmlns:xlink="http://www.w3.org/1999/xlink" x="0px" y="0px"
	 width="285px" height="281.6px" viewBox="0 0 285 281.6" enable-background="new 0 0 285 281.6" xml:space="preserve">
<circle fill="#FFFFFF" cx="142.5" cy="8.2" r="8.2"/>
<line fill="none" x1="0" y1="44.7" x2="285" y2="44.7"/>
<rect y="41.7" fill="#FFFFFF" width="285" height="6"/>
<g>
	<line fill="none" x1="0" y1="232.2" x2="285" y2="232.2"/>
	<rect y="229.2" fill="#FFFFFF" width="285" height="6"/>
	<circle fill="#FFFFFF" cx="142.5" cy="273.4" r="8.2"/>
</g>
<g>
	<path fill="#FFFFFF" d="M28.3,124.3h-6.6V72.7h17.6c4.5,0,8.3,1.5,11.4,4.4c3.1,3,4.7,6.6,4.7,10.9c0,3.6-1.2,6.7-3.5,9.5
		c-2.3,2.8-5.3,4.5-8.8,5.3l-0.1,0.2l14.5,21v0.3h-7.8l-13.9-20.9h-7.3V124.3z M28.3,79.1v18.1H39c2.7,0,5-0.9,6.8-2.6
		c1.9-1.8,2.8-3.9,2.8-6.5c0-2.4-0.9-4.5-2.6-6.3c-1.8-1.8-3.9-2.7-6.6-2.7H28.3z"/>
	<path fill="#FFFFFF" d="M92.4,124.3h-6.3v-4.9h-0.3c-1,1.7-2.6,3.2-4.6,4.3c-2.1,1.2-4.3,1.7-6.5,1.7c-4.3,0-7.6-1.2-10-3.7
		c-2.3-2.5-3.5-6-3.5-10.5V89h6.6v21.7c0.1,5.8,3,8.6,8.7,8.6c2.6,0,4.8-1.1,6.6-3.2c1.8-2.1,2.7-4.7,2.7-7.7V89h6.6V124.3z"/>
	<path fill="#FFFFFF" d="M100.5,89h6.3v4.9h0.3c1-1.7,2.6-3.2,4.6-4.3c2.1-1.2,4.3-1.7,6.5-1.7c4.3,0,7.6,1.2,10,3.7
		c2.3,2.5,3.5,6,3.5,10.5v22.2h-6.6v-21.7c-0.1-5.8-3-8.6-8.7-8.6c-2.6,0-4.8,1.1-6.6,3.2c-1.8,2.1-2.7,4.7-2.7,7.7v19.5h-6.6V89z"
		/>
	<path fill="#FFFFFF" d="M168.7,87.9c4.9,0,8.8,1.3,11.6,3.9c2.8,2.6,4.2,6.2,4.2,10.8v21.7h-6.3v-4.9h-0.3c-2.7,4-6.4,6-10.9,6
		c-3.9,0-7.1-1.2-9.8-3.5c-2.6-2.3-3.9-5.2-3.9-8.6c0-3.6,1.4-6.6,4.1-8.7c2.8-2.2,6.4-3.2,11.1-3.2c3.9,0,7.2,0.7,9.7,2.2v-1.5
		c0-2.3-0.9-4.3-2.7-5.9c-1.8-1.6-4-2.4-6.4-2.4c-3.7,0-6.6,1.6-8.8,4.7l-5.8-3.7C157.7,90.2,162.4,87.9,168.7,87.9z M160.1,113.5
		c0,1.7,0.7,3.2,2.2,4.3s3.2,1.7,5.1,1.7c2.8,0,5.3-1,7.5-3.1c2.2-2.1,3.3-4.5,3.3-7.3c-2.1-1.6-4.9-2.4-8.6-2.4
		c-2.7,0-4.9,0.6-6.7,1.9C161,110,160.1,111.6,160.1,113.5z"/>
	<path fill="#FFFFFF" d="M192,89h6.3v4.9h0.3c1-1.7,2.6-3.2,4.6-4.3c2.1-1.2,4.3-1.7,6.5-1.7c4.3,0,7.6,1.2,10,3.7
		c2.3,2.5,3.5,6,3.5,10.5v22.2h-6.6v-21.7c-0.1-5.8-3-8.6-8.7-8.6c-2.6,0-4.8,1.1-6.6,3.2c-1.8,2.1-2.7,4.7-2.7,7.7v19.5H192V89z"/>
	<path fill="#FFFFFF" d="M245.8,125.5c-4.6,0-8.6-1.8-11.9-5.5c-3.3-3.7-4.9-8.1-4.9-13.3s1.6-9.6,4.9-13.3
		c3.3-3.6,7.3-5.5,11.9-5.5c2.6,0,5,0.6,7.1,1.7c2.1,1.1,3.8,2.6,4.9,4.4h0.3l-0.3-4.9V72.7h6.6v51.6h-6.3v-4.9h-0.3
		c-1.2,1.8-2.8,3.3-4.9,4.4S248.4,125.5,245.8,125.5z M246.9,119.4c3.3,0,5.9-1.2,8-3.5c2.2-2.4,3.2-5.4,3.2-9.2
		c0-3.7-1.1-6.7-3.2-9.1c-2.1-2.4-4.8-3.6-8-3.6c-3.2,0-5.8,1.2-8,3.6c-2.2,2.4-3.2,5.4-3.2,9.1c0,3.7,1.1,6.8,3.2,9.1
		C241.1,118.2,243.7,119.4,246.9,119.4z"/>
	<path fill="#FFFFFF" d="M102.6,213c-2,0-3.8-0.3-5.5-0.8s-3.3-1.2-4.7-2.1c-1.4-0.9-2.6-2-3.6-3.2c-1-1.2-1.8-2.6-2.3-4.2l6.3-2.6
		c0.7,2.1,2,3.7,3.7,5c1.8,1.2,3.8,1.9,6.2,1.9c3.6,0,6.4-1.1,8.4-3.2s3-5.1,3-8.9v-3.4h-0.3c-1.2,1.9-2.9,3.3-5.1,4.4
		c-2.1,1.1-4.5,1.6-6.9,1.6c-4.6,0-8.6-1.8-11.9-5.4c-3.3-3.7-4.9-8.2-4.9-13.4c0-5.2,1.6-9.7,4.9-13.3c3.3-3.6,7.3-5.5,11.9-5.5
		c2.5,0,4.8,0.5,6.9,1.6c2.1,1.1,3.8,2.6,5.1,4.4h0.3V161h6.3v33.8c0,5.7-1.6,10.1-4.8,13.3C112.3,211.4,108,213,102.6,213z
		 M102.8,191.4c3.3,0,5.9-1.2,8-3.5c2.2-2.4,3.2-5.4,3.2-9.2c0-3.7-1.1-6.7-3.2-9.1c-2.1-2.4-4.8-3.6-8-3.6c-3.2,0-5.8,1.2-8,3.6
		c-2.2,2.4-3.2,5.4-3.2,9.1c0,3.7,1.1,6.8,3.2,9.1C97,190.2,99.6,191.4,102.8,191.4z"/>
	<path fill="#FFFFFF" d="M159,196.3h-6.3v-4.9h-0.3c-1,1.7-2.6,3.2-4.6,4.3c-2.1,1.2-4.3,1.7-6.5,1.7c-4.3,0-7.6-1.2-10-3.7
		c-2.3-2.5-3.5-6-3.5-10.5V161h6.6v21.7c0.1,5.8,3,8.6,8.7,8.6c2.6,0,4.8-1.1,6.6-3.2c1.8-2.1,2.7-4.7,2.7-7.7V161h6.6V196.3z"/>
	<path fill="#FFFFFF" d="M167.1,161h6.3v4.9h0.3c1-1.7,2.6-3.2,4.6-4.3c2.1-1.2,4.3-1.7,6.5-1.7c4.3,0,7.6,1.2,10,3.7
		c2.3,2.5,3.5,6,3.5,10.5v22.2h-6.6v-21.7c-0.1-5.8-3-8.6-8.7-8.6c-2.6,0-4.8,1.1-6.6,3.2c-1.8,2.1-2.7,4.7-2.7,7.7v19.5h-6.6V161z"
		/>
</g>
</svg>
