<?xml version="1.0" encoding="utf-8"?>
<!-- Generator: Adobe Illustrator 24.1.0, SVG Export Plug-In . SVG Version: 6.00 Build 0)  -->
<svg version="1.0" id="Capa_1" xmlns="http://www.w3.org/2000/svg" xmlns:xlink="http://www.w3.org/1999/xlink" x="0px" y="0px"
	 width="285px" height="281.6px" viewBox="0 0 285 281.6" enable-background="new 0 0 285 281.6" xml:space="preserve">
<circle fill="#FFFFFF" cx="142.5" cy="8.2" r="8.2"/>
<line fill="none" x1="0" y1="44.7" x2="285" y2="44.7"/>
<rect y="41.7" fill="#FFFFFF" width="285" height="6"/>
<g>
	<line fill="none" x1="0" y1="232.2" x2="285" y2="232.2"/>
	<rect y="229.2" fill="#FFFFFF" width="285" height="6"/>
	<circle fill="#FFFFFF" cx="142.5" cy="273.4" r="8.2"/>
</g>
<g>
	<path fill="#FFFFFF" d="M33.4,110.7c0,4.1-1.5,7.5-4.6,10c-3.1,2.5-6.8,3.7-11.2,3.7c-3.9,0-7.4-1.1-10.4-3.4
		c-3-2.3-5.1-5.4-6.2-9.4l5.8-2.4c0.4,1.4,0.9,2.7,1.6,3.8c0.7,1.1,1.5,2.1,2.5,2.9c0.9,0.8,2,1.5,3.1,1.9c1.1,0.5,2.4,0.7,3.6,0.7
		c2.8,0,5-0.7,6.8-2.1c1.8-1.4,2.6-3.3,2.6-5.7c0-2-0.7-3.7-2.2-5.1c-1.4-1.4-3.9-2.7-7.7-4c-3.8-1.4-6.1-2.3-7.1-2.8
		c-5-2.6-7.5-6.3-7.5-11.3c0-3.5,1.4-6.4,4.2-8.9c2.8-2.5,6.3-3.7,10.4-3.7c3.6,0,6.7,0.9,9.4,2.8c2.6,1.8,4.4,4.1,5.3,6.8l-5.7,2.4
		c-0.5-1.8-1.6-3.2-3.1-4.4c-1.6-1.2-3.5-1.7-5.7-1.7c-2.4,0-4.4,0.7-6,2C9.8,84,9,85.6,9,87.6c0,1.6,0.6,3,1.9,4.2
		c1.4,1.2,4.5,2.6,9.2,4.2c4.8,1.6,8.2,3.6,10.3,6C32.4,104.4,33.4,107.3,33.4,110.7z"/>
	<path fill="#FFFFFF" d="M39.7,76h6.1V91l-0.3,4.5h0.3c0.9-1.6,2.3-2.9,4.3-4s3.9-1.6,6-1.6c4,0,7,1.1,9.1,3.4
		c2.1,2.3,3.2,5.5,3.2,9.7v20.3h-6.1v-19.1c0-5.8-2.6-8.7-7.7-8.7c-2.5,0-4.5,1-6.2,3.1c-1.7,2-2.5,4.4-2.5,7.2v17.6h-6.1V76z"/>
	<path fill="#FFFFFF" d="M73.6,107.1c0-5,1.6-9.1,4.7-12.3c3.2-3.3,7.1-4.9,11.9-4.9c4.8,0,8.8,1.6,11.9,4.9
		c3.2,3.3,4.8,7.4,4.8,12.3c0,5-1.6,9.1-4.8,12.3c-3.1,3.3-7.1,4.9-11.9,4.9c-4.8,0-8.8-1.6-11.9-4.9
		C75.2,116.2,73.6,112.1,73.6,107.1z M79.7,107.1c0,3.5,1,6.3,3,8.4c2,2.2,4.5,3.2,7.5,3.2c3,0,5.5-1.1,7.5-3.2c2-2.2,3-5,3-8.4
		c0-3.4-1-6.2-3-8.4c-2.1-2.2-4.6-3.3-7.5-3.3c-2.9,0-5.5,1.1-7.5,3.3C80.7,100.9,79.7,103.7,79.7,107.1z"/>
	<path fill="#FFFFFF" d="M110.6,107.1c0-5,1.6-9.1,4.7-12.3c3.2-3.3,7.1-4.9,11.9-4.9c4.8,0,8.8,1.6,11.9,4.9
		c3.2,3.3,4.8,7.4,4.8,12.3c0,5-1.6,9.1-4.8,12.3c-3.1,3.3-7.1,4.9-11.9,4.9c-4.8,0-8.8-1.6-11.9-4.9
		C112.1,116.2,110.6,112.1,110.6,107.1z M116.6,107.1c0,3.5,1,6.3,3,8.4c2,2.2,4.5,3.2,7.5,3.2c3,0,5.5-1.1,7.5-3.2c2-2.2,3-5,3-8.4
		c0-3.4-1-6.2-3-8.4c-2.1-2.2-4.6-3.3-7.5-3.3c-2.9,0-5.5,1.1-7.5,3.3C117.6,100.9,116.6,103.7,116.6,107.1z"/>
	<path fill="#FFFFFF" d="M161.2,123.8c-2.6,0-4.8-0.8-6.6-2.4c-1.7-1.6-2.6-3.9-2.7-6.8V96.5h-5.7V91h5.7v-9.9h6.1V91h7.9v5.5H158
		v16.1c0,2.2,0.4,3.6,1.3,4.4c0.8,0.8,1.8,1.2,2.8,1.2c0.5,0,1-0.1,1.4-0.2c0.5-0.1,0.9-0.3,1.3-0.4l1.9,5.4
		C165.1,123.5,163.3,123.8,161.2,123.8z"/>
	<path fill="#FFFFFF" d="M191.9,75l2.8,1.8l-3.3,5c0.9,0.2,1.7,0.6,2.3,1.4c0.6,0.7,1,1.6,1,2.7c0,1.2-0.4,2.3-1.3,3.2
		c-0.9,0.9-1.9,1.3-3.2,1.3c-1.3,0-2.3-0.5-3.2-1.4c-0.9-0.9-1.3-2-1.3-3.2c0-0.6,0.1-1.3,0.3-1.9c0.2-0.7,0.6-1.3,1.1-2L191.9,75z"
		/>
	<path fill="#FFFFFF" d="M212.1,124.4c-4.8,0-8.7-1.6-11.7-4.9c-3.1-3.3-4.6-7.4-4.6-12.3c0-4.9,1.5-9,4.5-12.3
		c3-3.3,6.8-4.9,11.5-4.9c4.8,0,8.6,1.6,11.5,4.7s4.3,7.4,4.3,13l-0.1,0.7H202c0.1,3.2,1.1,5.7,3.2,7.7c2,1.9,4.4,2.9,7.3,2.9
		c3.9,0,6.9-1.9,9.1-5.8l5.4,2.6c-1.5,2.7-3.5,4.9-6,6.4C218.3,123.6,215.4,124.4,212.1,124.4z M202.4,103.2H221
		c-0.2-2.2-1.1-4.1-2.7-5.6c-1.7-1.5-3.9-2.2-6.6-2.2c-2.3,0-4.3,0.7-5.9,2.1C204,99,203,100.9,202.4,103.2z"/>
	<path fill="#FFFFFF" d="M239.1,123.3H233V91h5.8v4.5h0.3c0.9-1.6,2.3-2.9,4.3-4s3.8-1.6,5.7-1.6c2.4,0,4.5,0.6,6.3,1.6
		c1.8,1.1,3.1,2.6,4,4.6c2.7-4.1,6.4-6.2,11.2-6.2c3.7,0,6.6,1.1,8.6,3.4c2,2.3,3,5.5,3,9.8v20.2H276V104c0-3-0.6-5.2-1.6-6.6
		c-1.1-1.3-2.9-2-5.5-2c-2.3,0-4.3,1-5.9,3s-2.4,4.3-2.4,7v17.9h-6.1V104c0-3-0.6-5.2-1.6-6.6c-1.1-1.3-2.9-2-5.5-2
		c-2.3,0-4.3,1-5.9,3s-2.4,4.3-2.4,7V123.3z"/>
	<path fill="#FFFFFF" d="M137.8,189.3H132v-4.5h-0.3c-0.9,1.6-2.3,2.9-4.3,4c-1.9,1.1-3.9,1.6-6,1.6c-4,0-7-1.1-9.1-3.4
		c-2.1-2.3-3.2-5.5-3.2-9.7V157h6.1v19.9c0.1,5.3,2.8,7.9,8,7.9c2.4,0,4.4-1,6.1-2.9c1.6-2,2.4-4.3,2.4-7V157h6.1V189.3z"/>
	<path fill="#FFFFFF" d="M162,190.4c-2.4,0-4.5-0.5-6.5-1.5c-2-1-3.5-2.4-4.5-4h-0.3l0.3,4.5v14.3h-6.1V157h5.8v4.5h0.3
		c1.1-1.7,2.6-3,4.5-4c2-1,4.1-1.5,6.5-1.5c4.3,0,7.9,1.7,10.8,5c3,3.4,4.6,7.5,4.6,12.2c0,4.8-1.5,8.9-4.6,12.2
		C169.9,188.7,166.3,190.4,162,190.4z M161,184.8c2.9,0,5.3-1.1,7.3-3.3c2-2.2,3-4.9,3-8.4c0-3.4-1-6.2-3-8.4
		c-2-2.2-4.4-3.3-7.3-3.3c-2.9,0-5.4,1.1-7.4,3.3c-1.9,2.2-2.9,5-2.9,8.4c0,3.4,1,6.2,2.9,8.4C155.6,183.7,158.1,184.8,161,184.8z"
		/>
</g>
</svg>
