<?xml version="1.0" encoding="utf-8"?>
<!-- Generator: Adobe Illustrator 24.1.2, SVG Export Plug-In . SVG Version: 6.00 Build 0)  -->
<svg version="1.0" id="Capa_1" xmlns="http://www.w3.org/2000/svg" xmlns:xlink="http://www.w3.org/1999/xlink" x="0px" y="0px"
	 width="285px" height="215.9px" viewBox="0 0 285 215.9" enable-background="new 0 0 285 215.9" xml:space="preserve">
<circle fill="#FFFFFF" cx="142.5" cy="8.2" r="8.2"/>
<line fill="none" x1="0" y1="44.7" x2="285" y2="44.7"/>
<rect y="41.7" fill="#FFFFFF" width="285" height="6"/>
<g>
	<line fill="none" x1="0" y1="166.5" x2="285" y2="166.5"/>
	<rect y="163.5" fill="#FFFFFF" width="285" height="6"/>
	<circle fill="#FFFFFF" cx="142.5" cy="207.7" r="8.2"/>
	<g>
	</g>
</g>
<g>
	<path fill="#FFFFFF" d="M77.4,116.8c0,4.5-1.7,8.1-5,10.9c-3.4,2.7-7.4,4-12.2,4c-4.3,0-8-1.2-11.3-3.7c-3.3-2.5-5.5-5.9-6.8-10.2
		l6.3-2.6c0.4,1.5,1,2.9,1.8,4.2c0.8,1.2,1.7,2.3,2.7,3.2c1,0.9,2.2,1.6,3.4,2.1c1.2,0.5,2.6,0.8,4,0.8c3,0,5.5-0.8,7.4-2.3
		c1.9-1.6,2.9-3.6,2.9-6.2c0-2.2-0.8-4-2.4-5.5c-1.5-1.5-4.3-2.9-8.4-4.3c-4.1-1.5-6.7-2.5-7.7-3C46.7,101.1,44,97,44,91.6
		c0-3.8,1.5-7,4.5-9.7c3.1-2.7,6.8-4,11.3-4c3.9,0,7.3,1,10.2,3c2.9,2,4.8,4.4,5.8,7.4l-6.2,2.6c-0.6-1.9-1.7-3.5-3.4-4.8
		c-1.7-1.3-3.8-1.9-6.2-1.9c-2.6,0-4.8,0.7-6.6,2.2c-1.8,1.3-2.7,3.1-2.7,5.3c0,1.8,0.7,3.3,2.1,4.6c1.5,1.3,4.9,2.8,10,4.6
		c5.2,1.8,9,3.9,11.2,6.5C76.3,109.9,77.4,113.1,77.4,116.8z"/>
	<path fill="#FFFFFF" d="M102.6,131.7c-2.6,0-5-0.6-7.1-1.7c-2.1-1.1-3.8-2.6-4.9-4.4h-0.3l0.3,4.9v15.6h-6.6V95.3h6.3v4.9h0.3
		c1.2-1.8,2.8-3.3,4.9-4.4c2.1-1.1,4.5-1.7,7.1-1.7c4.7,0,8.6,1.8,11.8,5.5c3.3,3.7,5,8.1,5,13.3c0,5.2-1.7,9.7-5,13.3
		C111.2,129.9,107.2,131.7,102.6,131.7z M101.5,125.7c3.2,0,5.8-1.2,8-3.6c2.2-2.4,3.2-5.4,3.2-9.1c0-3.7-1.1-6.7-3.2-9.1
		c-2.2-2.4-4.8-3.6-8-3.6c-3.2,0-5.9,1.2-8.1,3.6c-2.1,2.4-3.2,5.4-3.2,9.1c0,3.7,1.1,6.8,3.2,9.2
		C95.6,124.5,98.3,125.7,101.5,125.7z"/>
	<path fill="#FFFFFF" d="M123.4,112.9c0-5.4,1.7-9.9,5.1-13.5c3.5-3.6,7.8-5.3,13-5.3c5.2,0,9.6,1.8,13,5.3c3.5,3.6,5.2,8,5.2,13.5
		c0,5.5-1.7,10-5.2,13.5c-3.4,3.6-7.7,5.3-13,5.3c-5.2,0-9.6-1.8-13-5.3C125.1,122.8,123.4,118.3,123.4,112.9z M130,112.9
		c0,3.8,1.1,6.9,3.3,9.2c2.2,2.4,4.9,3.5,8.2,3.5c3.3,0,6-1.2,8.2-3.5c2.2-2.4,3.3-5.4,3.3-9.2c0-3.7-1.1-6.8-3.3-9.1
		c-2.3-2.4-5-3.6-8.2-3.6c-3.2,0-6,1.2-8.2,3.6C131.1,106.1,130,109.2,130,112.9z"/>
	<path fill="#FFFFFF" d="M165,95.3h6.3v5.8h0.3c2-4.5,6-6.8,12.2-6.8l1.4,0.1v6.9l-3-0.3c-3.1,0-5.6,0.9-7.6,2.8c-2,1.9-3,4.3-3,7.2
		v19.4H165V95.3z M206.3,131.1c-2.9,0-5.3-0.9-7.2-2.7c-1.9-1.8-2.9-4.2-2.9-7.4v-19.7h-6.2v-6h6.2V84.5h6.6v10.8h8.6v6h-8.6v17.6
		c0,2.4,0.5,3.9,1.4,4.8c0.9,0.8,1.9,1.3,3.1,1.3c0.5,0,1-0.1,1.5-0.2c0.5-0.1,1-0.3,1.4-0.5l2.1,5.9
		C210.7,130.8,208.6,131.1,206.3,131.1z"/>
	<path fill="#FFFFFF" d="M245.6,120.8c0,3.1-1.3,5.7-4,7.8c-2.7,2.1-6.1,3.2-10.2,3.2c-3.6,0-6.7-0.9-9.4-2.8
		c-2.7-1.8-4.6-4.3-5.8-7.3l5.9-2.5c0.9,2.1,2.1,3.8,3.8,4.9c1.7,1.2,3.5,1.8,5.4,1.8c2.1,0,3.9-0.5,5.3-1.4c1.4-0.9,2.1-2,2.1-3.2
		c0-2.3-1.7-3.9-5.2-5l-6-1.5c-6.9-1.7-10.3-5-10.3-9.9c0-3.2,1.3-5.8,3.9-7.7c2.6-1.9,6-2.9,10-2.9c3.1,0,5.9,0.7,8.5,2.2
		c2.5,1.5,4.3,3.5,5.3,6l-5.9,2.4c-0.7-1.5-1.8-2.7-3.3-3.5c-1.5-0.8-3.2-1.3-5.1-1.3c-1.7,0-3.3,0.4-4.6,1.3
		c-1.4,0.9-2.1,1.9-2.1,3.2c0,2,1.9,3.5,5.7,4.3l5.3,1.4C242.1,111.9,245.6,115.4,245.6,120.8z"/>
</g>
</svg>
